<svg width="81" height="29" viewBox="0 0 81 29" fill="none" xmlns="http://www.w3.org/2000/svg">
<path d="M-1.46875 -1.16113V30.0953H83.7827V-1.16113H-1.46875ZM83.0254 29.3398H-0.711389V-0.405655H83.0254V29.3398ZM36.0215 27.0294H35.6428V1.90477H36.0215V27.0294ZM42.661 12.7951H41.8838V8.07751H42.661V12.7951ZM46.0657 10.7665C46.0657 10.4835 46.0052 10.2666 45.8835 10.1159C45.7618 9.96563 45.577 9.89029 45.3296 9.89029H45.2823C45.1378 9.89029 45.0007 9.92614 44.8698 9.99818C44.7393 10.0702 44.6334 10.1799 44.5523 10.3284C44.4713 10.4765 44.431 10.6652 44.431 10.8945V12.7951H43.6875V9.3443H44.343V9.86323C44.4511 9.67453 44.5985 9.52533 44.7855 9.41525C44.9725 9.30518 45.1943 9.24995 45.4509 9.24995H45.5187C45.9106 9.24995 46.2234 9.37137 46.4576 9.61383C46.6919 9.85665 46.8092 10.207 46.8092 10.6652V12.7951H46.0657V10.7665ZM47.934 12.4411C47.6392 12.147 47.4915 11.7258 47.4915 11.1776V10.9552C47.4915 10.5957 47.5601 10.2893 47.6975 10.0351C47.835 9.78132 48.0275 9.58712 48.2753 9.45218C48.5231 9.3176 48.8091 9.24995 49.1336 9.24995H49.201C49.5207 9.24995 49.792 9.32638 50.0153 9.47925C50.2382 9.63211 50.3991 9.83434 50.4981 10.0856L49.9038 10.3485C49.836 10.2096 49.7447 10.098 49.63 10.015C49.5152 9.93198 49.3722 9.89029 49.201 9.89029H49.1402C48.8744 9.89029 48.657 9.97806 48.4883 10.1532C48.3193 10.3284 48.235 10.5913 48.235 10.9417V11.1911C48.235 11.555 48.3171 11.8223 48.4814 11.9931C48.646 12.1639 48.8652 12.2491 49.1402 12.2491H49.201C49.381 12.2491 49.5321 12.2099 49.6538 12.1313C49.7751 12.0527 49.8697 11.9459 49.9376 11.811L50.5186 12.1145C50.4193 12.339 50.255 12.5234 50.0252 12.6671C49.7957 12.8108 49.5207 12.8828 49.201 12.8828H49.1336C48.6287 12.8828 48.2291 12.7355 47.934 12.4411ZM52.5995 12.8828H52.7007C53.0208 12.8828 53.2976 12.8232 53.5319 12.704C53.7661 12.5852 53.9439 12.4221 54.0656 12.2154L53.5253 11.8651C53.4442 12.0044 53.3372 12.1086 53.2041 12.1785C53.0714 12.248 52.9035 12.2827 52.7007 12.2827H52.5995C52.3338 12.2827 52.1255 12.1997 51.9745 12.0337C51.8238 11.8673 51.7417 11.6157 51.7281 11.2785H54.1804V10.8674C54.1804 10.3734 54.0444 9.98025 53.7716 9.68806C53.4992 9.39623 53.1289 9.24994 52.6604 9.24994H52.5995C52.1086 9.24994 51.7189 9.40171 51.4308 9.70488C51.1423 10.0084 50.9982 10.4271 50.9982 10.9618V11.1841C50.9982 11.728 51.139 12.147 51.4205 12.4411C51.7021 12.7355 52.0951 12.8828 52.5995 12.8828ZM52.0016 10.0856C52.1526 9.93309 52.3517 9.85665 52.5995 9.85665H52.6534C52.9057 9.85665 53.1029 9.9298 53.2448 10.0757C53.3867 10.2216 53.4578 10.4341 53.4578 10.7124V10.7596H51.7347C51.7618 10.463 51.8505 10.2384 52.0016 10.0856ZM56.7141 12.8828C56.9978 12.8828 57.2501 12.8174 57.4708 12.6872C57.6915 12.557 57.866 12.365 57.9943 12.1108C58.1226 11.857 58.1868 11.5484 58.1868 11.1842V10.9618C58.1868 10.5935 58.1226 10.2823 57.9943 10.0285C57.866 9.77473 57.6915 9.58128 57.4708 9.4489C57.2501 9.31651 56.9978 9.24995 56.7141 9.24995H56.6734C56.4076 9.24995 56.1792 9.30298 55.9878 9.4083C55.7961 9.51399 55.6465 9.661 55.5383 9.8497V9.3443H54.8828V14.1431H55.6263V12.3906C55.7389 12.5479 55.8841 12.6693 56.0619 12.7545C56.2397 12.8401 56.4435 12.8828 56.6734 12.8828L56.7141 12.8828ZM56.4908 12.2491C56.3423 12.2491 56.2004 12.2121 56.0652 12.1379C55.9302 12.0637 55.821 11.947 55.7378 11.7876C55.6542 11.6281 55.6128 11.4226 55.6128 11.171V10.9618C55.6128 10.7058 55.6542 10.4992 55.7378 10.3419C55.821 10.1847 55.9291 10.0702 56.0619 9.99818C56.1946 9.92614 56.3379 9.89029 56.4908 9.89029H56.5451C56.8017 9.89029 57.0158 9.97587 57.187 10.1463C57.3578 10.3171 57.4436 10.587 57.4436 10.9552V11.1841C57.4436 11.5528 57.3578 11.8223 57.187 11.9931C57.0158 12.1639 56.8017 12.2491 56.5451 12.2491H56.4908ZM59.1462 9.95758H58.4163V9.3443H59.1462V8.32655H59.8893V9.3443H61.0178L60.9298 9.95758H59.8893V11.6629C59.8893 11.8559 59.9344 11.9942 60.0246 12.0772C60.1144 12.1606 60.2497 12.2019 60.4297 12.2019H61.0178V12.8287H60.3557C59.9187 12.8287 59.6078 12.7311 59.423 12.5354C59.2382 12.3401 59.1462 12.0604 59.1462 11.6965V9.95758ZM61.6729 7.95609H62.4432V8.73102H61.6729V7.95609ZM61.6865 9.3443H62.43V12.7951H61.6865V9.3443ZM63.9533 12.6839C64.1989 12.8163 64.4768 12.8828 64.7877 12.8828H64.8485C65.1594 12.8828 65.4384 12.8163 65.6862 12.6839C65.9341 12.5515 66.1287 12.357 66.2706 12.101C66.4125 11.8446 66.4836 11.5371 66.4836 11.1776V10.9552C66.4836 10.5957 66.4125 10.2893 66.2706 10.0351C66.1287 9.78132 65.9341 9.58713 65.6862 9.45219C65.4384 9.3176 65.1594 9.24995 64.8485 9.24995H64.7877C64.4768 9.24995 64.1989 9.3176 63.9533 9.45219C63.7076 9.58713 63.5129 9.78132 63.3689 10.0351C63.2248 10.2893 63.1526 10.5979 63.1526 10.9618V11.1776C63.1526 11.5371 63.2248 11.8446 63.3689 12.101C63.5129 12.357 63.7076 12.5515 63.9533 12.6839ZM63.8961 10.9417C63.8961 10.587 63.9815 10.3229 64.1527 10.15C64.3239 9.97698 64.5354 9.8903 64.7877 9.8903H64.8419C65.0986 9.8903 65.3123 9.97698 65.4835 10.15C65.6547 10.3229 65.7405 10.587 65.7405 10.9417V11.1911C65.7405 11.5462 65.6547 11.811 65.4835 11.9861C65.3123 12.1617 65.0986 12.2491 64.8419 12.2491H64.7877C64.5354 12.2491 64.3239 12.1617 64.1527 11.9861C63.9815 11.811 63.8961 11.5462 63.8961 11.1911V10.9417ZM70.3349 10.6652V12.7951H69.5914V10.7665C69.5914 10.4835 69.5309 10.2666 69.4092 10.1159C69.2875 9.96563 69.1027 9.8903 68.8553 9.8903H68.808C68.6635 9.8903 68.5264 9.92614 68.3955 9.99818C68.265 10.0702 68.1591 10.1799 68.078 10.3284C67.997 10.4765 67.9567 10.6652 67.9567 10.8945V12.7951H67.2132V9.34431H67.8687V9.86324C67.9769 9.67454 68.1242 9.52533 68.3112 9.41525C68.4982 9.30518 68.72 9.24995 68.9766 9.24995H69.0444C69.4364 9.24995 69.7491 9.37137 69.9833 9.61383C70.2176 9.85665 70.3349 10.207 70.3349 10.6652ZM44.8838 15.2054C44.5729 14.9472 44.1494 14.8181 43.6134 14.8181H41.8838V19.5357H42.661V17.8776H43.6134C44.1494 17.8776 44.5729 17.7507 44.8838 17.4969C45.1946 17.2431 45.3497 16.8825 45.3497 16.4152V16.2736C45.3497 15.8198 45.1946 15.464 44.8838 15.2054ZM44.5729 16.4356C44.5729 16.7052 44.4838 16.903 44.306 17.0285C44.1282 17.1543 43.8906 17.2172 43.5933 17.2172H42.661V15.4852H43.5933C43.8906 15.4852 44.1282 15.5481 44.306 15.6739C44.4838 15.7997 44.5729 15.9953 44.5729 16.2601V16.4356ZM47.6334 16.0447H47.985V16.7319H47.6403C47.4779 16.7319 47.3261 16.7681 47.1843 16.8397C47.0424 16.9118 46.9273 17.0252 46.8397 17.1802C46.7517 17.3353 46.708 17.5408 46.708 17.7968V19.5357H45.9645V16.0849H46.62V16.7388C46.7055 16.5278 46.8261 16.3592 46.9815 16.2334C47.137 16.1076 47.354 16.0447 47.6334 16.0447ZM50.8024 16.1928C50.5546 16.0582 50.2756 15.9906 49.9647 15.9906H49.9038C49.5929 15.9906 49.315 16.0582 49.0694 16.1928C48.8238 16.3278 48.6291 16.522 48.485 16.7758C48.3409 17.0299 48.2687 17.3386 48.2687 17.7024V17.9182C48.2687 18.2777 48.3409 18.5852 48.485 18.8416C48.6291 19.0976 48.8238 19.2922 49.0694 19.4245C49.315 19.5569 49.5929 19.6235 49.9038 19.6235H49.9647C50.2756 19.6235 50.5546 19.5569 50.8024 19.4245C51.0502 19.2922 51.2449 19.0976 51.3868 18.8416C51.5287 18.5852 51.5998 18.2777 51.5998 17.9182V17.6959C51.5998 17.3364 51.5287 17.0299 51.3868 16.7758C51.2449 16.522 51.0502 16.3278 50.8024 16.1928ZM50.8567 17.9317C50.8567 18.2868 50.7709 18.5516 50.5997 18.7268C50.4285 18.9023 50.2147 18.9897 49.9581 18.9897H49.9038C49.6516 18.9897 49.4401 18.9023 49.2688 18.7268C49.0976 18.5516 49.0122 18.2868 49.0122 17.9317V17.6823C49.0122 17.3276 49.0976 17.0636 49.2688 16.8906C49.4401 16.7176 49.6516 16.6309 49.9038 16.6309H49.9581C50.2147 16.6309 50.4285 16.7176 50.5997 16.8906C50.7709 17.0636 50.8567 17.3276 50.8567 17.6823V17.9317ZM54.7886 16.5973C54.5631 16.1928 54.1848 15.9906 53.6532 15.9906H53.6059C53.3133 15.9906 53.0564 16.0604 52.836 16.1998C52.6149 16.3391 52.4441 16.5344 52.3224 16.786C52.2007 17.0376 52.1398 17.3298 52.1398 17.6622V17.844C52.1398 18.1768 52.2007 18.4686 52.3224 18.7202C52.4441 18.9718 52.6149 19.1674 52.836 19.3064C53.0564 19.4457 53.3133 19.5156 53.6059 19.5156H53.6532C54.1129 19.5156 54.4598 19.3514 54.694 19.0234V19.3807C54.694 20.032 54.4055 20.3578 53.8292 20.3578H53.7412C53.5205 20.3578 53.3438 20.3253 53.2107 20.2602C53.078 20.1951 52.9665 20.0883 52.8763 19.9402L52.3425 20.3377C52.4687 20.5487 52.6432 20.7085 52.8661 20.8164C53.0893 20.9239 53.3716 20.978 53.7141 20.978H53.8559C54.3652 20.978 54.7567 20.8376 55.0317 20.5567C55.3063 20.2759 55.4438 19.8773 55.4438 19.3605V16.0849H54.7886L54.7886 16.5973ZM54.7072 17.8374C54.7072 18.1519 54.6273 18.4046 54.4674 18.5955C54.3076 18.7864 54.0946 18.8818 53.8292 18.8818H53.7683C53.4934 18.8818 53.2771 18.7889 53.1198 18.6024C52.9618 18.4159 52.8833 18.1632 52.8833 17.844V17.6553C52.8833 17.3364 52.9618 17.0859 53.1198 16.9037C53.2771 16.722 53.4934 16.6309 53.7683 16.6309H53.8292C54.0946 16.6309 54.3076 16.7242 54.4674 16.9107C54.6273 17.0972 54.7072 17.3499 54.7072 17.6688V17.8374ZM58.0247 16.0447H58.3763V16.7319H58.0317C57.8693 16.7319 57.7175 16.7681 57.5756 16.8397C57.4337 16.9118 57.3186 17.0252 57.231 17.1802C57.143 17.3353 57.0994 17.5408 57.0994 17.7968V19.5357H56.3559V16.0849H57.0114V16.7388C57.0968 16.5278 57.2174 16.3592 57.3729 16.2334C57.5283 16.1076 57.7454 16.0447 58.0247 16.0447ZM60.2409 15.9906H60.1394C59.8017 15.9906 59.5146 16.0593 59.2782 16.1961C59.0417 16.3332 58.8716 16.5209 58.7678 16.7589L59.3423 17.0555C59.4234 16.8895 59.5278 16.7714 59.6565 16.7019C59.7848 16.632 59.9458 16.5973 60.1394 16.5973H60.2138C60.6731 16.5973 60.903 16.8533 60.903 17.3656V17.3927L59.68 17.5543C59.3376 17.5993 59.0776 17.7116 58.8998 17.8911C58.7217 18.0711 58.6329 18.3022 58.6329 18.5852C58.6329 18.9133 58.7341 19.1685 58.9369 19.3503C59.1396 19.5324 59.4256 19.6235 59.7947 19.6235H59.842C60.099 19.6235 60.3285 19.5683 60.5313 19.4582C60.734 19.3481 60.8872 19.1989 60.9906 19.0102V19.5357H61.6461V17.3521C61.6461 16.9074 61.5266 16.5691 61.288 16.3376C61.0493 16.1065 60.7003 15.9906 60.2409 15.9906ZM60.903 18.127C60.903 18.4013 60.8242 18.6204 60.6666 18.7842C60.5089 18.9484 60.297 19.0303 60.0312 19.0303H59.9638C59.7702 19.0303 59.6202 18.9864 59.5146 18.8986C59.4087 18.8113 59.3559 18.6909 59.3559 18.5381C59.3559 18.3856 59.4017 18.2733 59.4941 18.2013C59.5865 18.1296 59.7496 18.0776 59.9839 18.0462L60.903 17.9116V18.127ZM67.3925 16.3545C67.611 16.5973 67.7202 16.9476 67.7202 17.4059V19.5357H66.9771V17.5072C66.9771 17.2241 66.9239 17.0072 66.8183 16.8566C66.7124 16.7063 66.5445 16.6309 66.315 16.6309H66.2607C66.1346 16.6309 66.0118 16.6668 65.8926 16.7388C65.7731 16.8109 65.6763 16.9206 65.6019 17.069C65.5279 17.2172 65.4905 17.4059 65.4905 17.6352V19.5357H64.7473V17.5072C64.7473 17.2241 64.6942 17.0072 64.5886 16.8566C64.4826 16.7063 64.3147 16.6309 64.0852 16.6309H64.031C63.9049 16.6309 63.782 16.6668 63.6629 16.7388C63.5434 16.8109 63.4466 16.9206 63.3725 17.069C63.2981 17.2172 63.2611 17.4059 63.2611 17.6352V19.5357H62.5176V16.0849H63.1731V16.5973C63.2765 16.4086 63.4151 16.2601 63.5885 16.1526C63.7619 16.0447 63.9657 15.9906 64.2 15.9906H64.2608C64.7833 15.9906 65.1437 16.2042 65.342 16.6309C65.4501 16.4335 65.5975 16.2769 65.7845 16.1625C65.9715 16.048 66.1885 15.9906 66.4363 15.9906H66.4972C66.8755 15.9906 67.174 16.112 67.3925 16.3545Z" fill="black"/>
<path d="M14.7895 19.5839L14.7899 24.3756H16.1466V19.584L14.7895 19.5839ZM4.11719 19.5774V24.3756H5.48591V20.7323L6.54623 20.7326C6.89749 20.7326 7.14764 20.8198 7.31689 21C7.53149 21.2281 7.61907 21.5958 7.61907 22.2687V24.3756L8.94499 24.3754L8.94523 21.7246C8.94523 19.8325 7.73614 19.5774 6.55332 19.5774H4.11719ZM16.9738 19.5841V24.3756H19.1743C20.3467 24.3756 20.7293 24.1811 21.1431 23.7451C21.4357 23.4389 21.6246 22.7669 21.6246 22.0325C21.6246 21.359 21.4647 20.7582 21.1856 20.384C20.683 19.7149 19.9588 19.5841 18.8779 19.5841H16.9738ZM18.3196 20.6274H18.9029C19.7491 20.6274 20.2964 21.0065 20.2964 21.99C20.2964 22.9738 19.7491 23.3529 18.9029 23.3529H18.3196V20.6274ZM12.8334 19.5841L11.7012 23.3817L10.6163 19.5843L9.15178 19.5841L10.7012 24.3756H12.6565L14.2181 19.5841H12.8334ZM22.2559 24.3756H23.6128V19.5843L22.2556 19.5841L22.2559 24.3756ZM26.0591 19.5858L24.1647 24.374H25.5024L25.8021 23.5277H28.044L28.3278 24.374H29.7801L27.8713 19.5854L26.0591 19.5858ZM26.9397 20.4594L27.7615 22.7025H26.0919L26.9397 20.4594Z" fill="black"/>
<path d="M12.9953 8.35912V7.20808C13.1072 7.20016 13.2204 7.19419 13.3357 7.19056C16.4916 7.09163 18.5621 9.89554 18.5621 9.89554C18.5621 9.89554 16.3259 12.9938 13.9282 12.9938C13.5829 12.9938 13.2739 12.9382 12.9953 12.8449V9.35464C14.2238 9.50269 14.4709 10.044 15.2097 11.2722L16.8525 9.89054C16.8525 9.89054 15.6533 8.32166 13.6318 8.32166C13.4119 8.32166 13.2016 8.33714 12.9953 8.35912ZM12.9953 4.55688V6.27617C13.1085 6.26721 13.2219 6.26008 13.3357 6.25594C17.7245 6.10846 20.5837 9.84627 20.5837 9.84627C20.5837 9.84627 17.2995 13.8299 13.8781 13.8299C13.5646 13.8299 13.2711 13.801 12.9953 13.7523V14.8151C13.2312 14.845 13.4755 14.8626 13.7304 14.8626C16.9145 14.8626 19.2171 13.2407 21.4468 11.321C21.8162 11.6163 23.3297 12.3345 23.641 12.6493C21.5208 14.4196 16.5803 15.8464 13.7794 15.8464C13.5095 15.8464 13.2499 15.8302 12.9953 15.8058V17.2994H25.097V4.55688H12.9953ZM12.9953 12.8449V13.7523C10.0504 13.2286 9.23303 10.175 9.23303 10.175C9.23303 10.175 10.6469 8.61233 12.9953 8.35912L12.9953 9.35464C12.9934 9.35464 12.9922 9.35418 12.9907 9.35418C11.7584 9.20655 10.7955 10.3551 10.7955 10.3551C10.7955 10.3551 11.335 12.2885 12.9953 12.8449ZM7.76483 10.0427C7.76483 10.0427 9.51018 7.47369 12.9953 7.20808L12.9953 6.27617C9.1352 6.58518 5.79248 9.84627 5.79248 9.84627C5.79248 9.84627 7.6856 15.306 12.9953 15.8058V14.8151C9.09894 14.3261 7.76483 10.0427 7.76483 10.0427Z" fill="#76B900"/>
</svg>
