<?xml version="1.0" encoding="UTF-8"?>
<svg xmlns="http://www.w3.org/2000/svg" version="1.1" viewBox="0 0 96 96">
  <defs>
    <style>
      .cls-1 {
        fill: #969696;
        fill-rule: evenodd;
      }
    </style>
  </defs>
  <!-- Generator: Adobe Illustrator 28.7.10, SVG Export Plug-In . SVG Version: 1.2.0 Build 236)  -->
  <g>
    <g id="Layer_1">
      <g id="Layer_x5F_1">
        <path class="cls-1" d="M10.5,16.3h74.9c1.1,0,2.1.3,3,.9l-40.4,33.9L8,16.9c.7-.4,1.6-.6,2.5-.6ZM91.1,21.4c0,.2,0,.4,0,.6v51.9c0,.8-.2,1.5-.4,2.2l-27.2-31.5,27.6-23.2ZM87,79.5c-.5.1-1,.2-1.6.2H10.5c-.5,0-.9,0-1.4-.2l27.2-31.9,10,8.6c.9.8,2.3.8,3.2,0l10.1-8.5,27.3,31.7ZM5.3,76.3c-.3-.7-.5-1.5-.5-2.4V22c0-.4,0-.8.1-1.2l27.6,23.6-27.2,31.9Z"/>
      </g>
    </g>
  </g>
</svg>