<?xml version="1.0" encoding="UTF-8"?>
<svg xmlns="http://www.w3.org/2000/svg" version="1.1" viewBox="0 0 96 96">
  <defs>
    <style>
      .cls-1 {
        fill: #969696;
      }
    </style>
  </defs>
  <!-- Generator: Adobe Illustrator 28.7.10, SVG Export Plug-In . SVG Version: 1.2.0 Build 236)  -->
  <g>
    <g id="Layer_1">
      <path class="cls-1" d="M48.1,3.1C23.3,3.1,3.2,23.2,3.2,48s20.1,44.9,44.9,44.9,44.9-20.1,44.9-44.9S73,3.1,48.1,3.1ZM48.1,79.1c-3.8,0-6.7-3.1-6.7-6.7s3.1-6.7,6.7-6.7,6.7,3.1,6.7,6.7-2.9,6.7-6.7,6.7ZM58.6,52.8c-3.2,2.1-5.2,5.3-5.2,8.6v1.3h-10.7v-1.3c0-7.1,3.8-13.8,10.1-17.6,3.1-1.9,4.6-5.5,4-9.4-.6-3.4-3.4-6.1-6.9-6.9-2.7-.6-5.3.2-7.4,1.9s-3.2,4.2-3.2,6.9h-10.7c0-5.9,2.7-11.3,7.1-15.1,4.6-3.6,10.5-5.2,16.2-4,7.6,1.5,13.8,7.6,15.3,15.3,1.5,8-1.9,16-8.6,20.2Z"/>
    </g>
  </g>
</svg>