<?xml version="1.0" encoding="UTF-8"?>
<svg xmlns="http://www.w3.org/2000/svg" version="1.1" viewBox="0 0 96 96">
  <defs>
    <style>
      .cls-1 {
        fill: #969696;
      }
    </style>
  </defs>
  <!-- Generator: Adobe Illustrator 28.7.10, SVG Export Plug-In . SVG Version: 1.2.0 Build 236)  -->
  <g>
    <g id="Layer_1">
      <g id="Layer_19">
        <path class="cls-1" d="M51,48c0,5,4.1,9.1,9.1,9.1h30.3v-18.2h-30.3c-5,0-9.1,4.1-9.1,9.1ZM66.2,48c0,3.4-2.7,6.1-6.1,6.1s-6.1-2.7-6.1-6.1,2.7-6.1,6.1-6.1,6.1,2.7,6.1,6.1ZM90.5,63.2v6.1c0,8.4-6.8,15.2-15.2,15.2H20.7c-8.4,0-15.2-6.8-15.2-15.2V26.8c0-8.4,6.8-15.2,15.2-15.2h54.6c8.4,0,15.2,6.8,15.2,15.2v6.1h-30.3c-8.4,0-15.2,6.8-15.2,15.2s6.8,15.2,15.2,15.2h30.3Z"/>
      </g>
    </g>
  </g>
</svg>