<?xml version="1.0" encoding="UTF-8"?>
<svg xmlns="http://www.w3.org/2000/svg" version="1.1" viewBox="0 0 96 96">
  <defs>
    <style>
      .cls-1 {
        fill: #969696;
        fill-rule: evenodd;
      }
    </style>
  </defs>
  <!-- Generator: Adobe Illustrator 28.7.10, SVG Export Plug-In . SVG Version: 1.2.0 Build 236)  -->
  <g>
    <g id="Layer_1">
      <path class="cls-1" d="M80,68.4l-10.3-7.7c-2-1.5-4.9-1.1-6.4.9l-.5.7c-2.5,3.3-7.2,4-10.5,1.5-.2-.2-.5-.4-.7-.6-3.3-3.2-6.4-6.5-9.2-10.1-2.8-3.6-5.4-7.3-7.7-11.3-2.1-3.6-.9-8.2,2.7-10.3.3-.2.5-.3.8-.4l.8-.3c2.3-1,3.4-3.7,2.4-6l-5.1-11.8c-.9-2.1-3.2-3.2-5.3-2.6h-.1c-2.2.6-8.6,2.1-10.3,3.5-.3.2-.6.5-.8.7-4.4,4.4-3.4,12.6-2,18,2.6,10,8.5,20.1,14.9,28.1,6.4,8.1,14.8,16.2,23.9,21,3.2,1.7,6.8,3.1,10.4,3.6,3,.4,6.1,0,8.5-1.9,1.7-1.4,4.7-7.2,5.8-9.2h0c1.1-2.1.5-4.6-1.3-5.9h0Z"/>
    </g>
  </g>
</svg>