<?xml version="1.0" encoding="UTF-8"?>
<svg xmlns="http://www.w3.org/2000/svg" version="1.1" viewBox="0 0 96 96">
  <defs>
    <style>
      .cls-1 {
        fill: #969696;
      }
    </style>
  </defs>
  <!-- Generator: Adobe Illustrator 28.7.10, SVG Export Plug-In . SVG Version: 1.2.0 Build 236)  -->
  <g>
    <g id="Layer_1">
      <path class="cls-1" d="M6.9,57.8l7.5.5c.6,2.1,1.5,4.2,2.5,6.1l-4.9,5.7c-1.5,1.7-1.4,4.2.2,5.7l8,8c1.6,1.6,4.1,1.7,5.7.2l5.7-4.9c1.9,1,4,1.9,6.1,2.5l.5,7.5c.2,2.2,2,3.9,4.2,3.9h11.3c2.2,0,4.1-1.7,4.2-3.9l.5-7.5c2.1-.6,4.2-1.5,6.1-2.5l5.7,4.9c1.7,1.5,4.2,1.4,5.7-.2l7.9-8c1.6-1.6,1.7-4.1.2-5.7l-4.9-5.7c1-1.9,1.9-4,2.5-6.1l7.5-.5c2.2-.2,3.9-2,3.9-4.2v-11.3c0-2.2-1.7-4.1-3.9-4.2l-7.5-.5c-.6-2.1-1.5-4.2-2.5-6.1l4.9-5.7c1.5-1.7,1.4-4.2-.2-5.7l-7.9-8c-1.5-1.6-4.1-1.7-5.7-.2l-5.7,4.9c-1.9-1-4-1.9-6.1-2.5l-.5-7.5c-.2-2.2-2-3.9-4.2-3.9h-11.3c-2.2,0-4.1,1.7-4.2,3.9l-.5,7.5c-2.1.6-4.2,1.5-6.1,2.5l-5.7-4.9c-1.7-1.5-4.2-1.4-5.7.2l-8,8c-1.6,1.6-1.7,4.1-.2,5.8l4.9,5.6c-1,1.9-1.9,4-2.5,6.1l-7.5.5c-2.2.2-3.9,2-3.9,4.2v11.3c0,2.2,1.7,4.1,3.9,4.2h0ZM48,33.9c7.8,0,14.1,6.3,14.1,14.1s-6.3,14.1-14.1,14.1-14.1-6.3-14.1-14.1,6.3-14.1,14.1-14.1Z"/>
    </g>
  </g>
</svg>