<svg width="23" height="22" viewBox="0 0 23 22" fill="none" xmlns="http://www.w3.org/2000/svg">
<path d="M9.55566 1.30566C10.6296 0.231724 12.3704 0.231722 13.4443 1.30566L22.1338 9.99512C22.6218 10.4833 22.6219 11.2746 22.1338 11.7627C21.6457 12.2507 20.8543 12.2507 20.3662 11.7627L11.6768 3.07324C11.5791 2.97561 11.4209 2.97561 11.3232 3.07324L2.63379 11.7627C2.14566 12.2507 1.35434 12.2507 0.866211 11.7627C0.378093 11.2746 0.378169 10.4833 0.866211 9.99512L9.55566 1.30566ZM20.25 18.7539C20.2499 20.0655 19.1866 21.1289 17.875 21.1289H14.5C13.8097 21.1289 13.2501 20.5692 13.25 19.8789V15.3789C13.25 15.2408 13.1381 15.1289 13 15.1289H10C9.86193 15.1289 9.75 15.2408 9.75 15.3789V19.8789C9.74988 20.5692 9.19028 21.1289 8.5 21.1289H5.125C3.8134 21.1289 2.75012 20.0655 2.75 18.7539V12.332L2.91602 12.1836C2.94009 12.162 2.96408 12.1394 2.9873 12.1162L11.5 3.60352L20.0127 12.1162C20.0359 12.1394 20.0599 12.162 20.084 12.1836L20.25 12.332V18.7539Z" stroke="#8E0FFF" stroke-linecap="round"/>
</svg>
