<svg width="263" height="207" viewBox="0 0 263 207" fill="none" xmlns="http://www.w3.org/2000/svg">
<path d="M237.335 0.647811C247.492 0.290449 256.015 8.23465 256.373 18.3917L258.508 79.0778C249.126 80.9384 242.21 89.3752 242.557 99.2419C242.905 109.109 250.397 117.037 259.885 118.234L262.042 179.534C262.4 189.691 254.456 198.216 244.298 198.573L25.3547 206.276C15.1976 206.634 6.67396 198.689 6.3166 188.531L4.14924 126.93C12.7686 124.518 18.9495 116.46 18.6208 107.12C18.2922 97.779 11.5603 90.1745 2.79274 88.3747L0.647057 27.389C0.289856 17.232 8.23399 8.7085 18.391 8.35099L237.335 0.647811Z" fill="url(#paint0_linear_2546_24063)"/>
<line x1="23.6092" y1="106.814" x2="239.05" y2="99.2341" stroke="#D1D1DB" stroke-width="0.876316" stroke-dasharray="1.75 1.75"/>
<rect x="18.1721" y="126.734" width="227.842" height="39.4342" rx="7.88684" transform="rotate(-2.01503 18.1721 126.734)" fill="#F5E6FF"/>
<path d="M36.3526 151.996L35.9151 139.56L43.9897 139.276L44.0507 141.01L36.8694 141.263L37.8314 140.194L38.0323 145.905L37.0025 145.046L43.8686 144.805L43.9277 146.486L37.0616 146.728L38.0286 145.799L38.2443 151.93L36.3526 151.996ZM46.4617 151.641L46.0241 139.205L47.9158 139.138L48.3533 151.574L46.4617 151.641ZM51.0629 151.479L50.6253 139.043L55.5822 138.868C56.4697 138.837 57.2399 138.962 57.8928 139.243C58.5457 139.524 59.0572 139.939 59.4272 140.487C59.7972 141.035 59.9958 141.695 60.0229 142.465C60.0426 143.026 59.9319 143.532 59.6906 143.985C59.461 144.437 59.1407 144.805 58.7298 145.089C58.3301 145.36 57.8974 145.521 57.4315 145.573L57.3384 145.418C58.1208 145.391 58.7343 145.55 59.1791 145.897C59.6235 146.232 59.8941 146.778 59.9908 147.535L60.4512 151.149L58.542 151.216L58.1253 147.846C58.0726 147.345 57.8903 146.983 57.5785 146.76C57.2663 146.526 56.7657 146.42 56.0768 146.445L52.7839 146.561L52.9546 151.412L51.0629 151.479ZM52.7228 144.826L55.8231 144.717C56.5354 144.692 57.0897 144.497 57.4861 144.133C57.8937 143.756 58.086 143.241 58.063 142.587C58.0396 141.921 57.8116 141.421 57.3789 141.085C56.9457 140.738 56.3263 140.578 55.5206 140.607L52.578 140.71L52.7228 144.826ZM67.2052 151.192C66.2126 151.226 65.3422 151.076 64.5938 150.74C63.8571 150.403 63.2672 149.921 62.8243 149.294C62.3813 148.666 62.1098 147.928 62.0097 147.078L63.9496 146.887C64.0519 147.468 64.2387 147.958 64.51 148.358C64.7808 148.746 65.136 149.037 65.5754 149.232C66.0261 149.415 66.5609 149.496 67.1798 149.474C67.717 149.455 68.1701 149.375 68.5393 149.233C68.9197 149.079 69.2044 148.865 69.3935 148.589C69.5825 148.314 69.6703 147.983 69.6567 147.598C69.6444 147.248 69.5459 146.941 69.3613 146.679C69.188 146.404 68.858 146.165 68.3715 145.959C67.8962 145.742 67.1992 145.539 66.2806 145.349C65.2794 145.139 64.4759 144.898 63.8702 144.627C63.2644 144.356 62.8196 144.009 62.5358 143.587C62.2633 143.152 62.1157 142.614 62.0931 141.971C62.0681 141.259 62.2154 140.628 62.5352 140.079C62.8662 139.518 63.3474 139.075 63.979 138.748C64.6105 138.422 65.3759 138.243 66.275 138.212C67.2208 138.178 68.0327 138.325 68.7106 138.652C69.4002 138.979 69.9484 139.439 70.3551 140.032C70.7735 140.626 71.0431 141.312 71.1641 142.091L69.2235 142.264C69.1483 141.788 68.9876 141.372 68.7413 141.019C68.4946 140.653 68.1692 140.378 67.7652 140.194C67.3608 139.997 66.8725 139.909 66.3004 139.929C65.5764 139.955 65.0102 140.144 64.6017 140.498C64.2045 140.839 64.0156 141.284 64.0349 141.833C64.0472 142.183 64.1394 142.478 64.3115 142.718C64.4949 142.945 64.8057 143.139 65.2439 143.299C65.6938 143.458 66.3251 143.623 67.1378 143.793C68.2207 144.001 69.0838 144.274 69.7271 144.614C70.3817 144.942 70.8516 145.34 71.1371 145.81C71.4225 146.279 71.5759 146.817 71.5972 147.424C71.6231 148.16 71.453 148.809 71.087 149.371C70.7322 149.922 70.2214 150.355 69.5544 150.67C68.8874 150.986 68.1043 151.16 67.2052 151.192ZM75.9926 150.602L75.6161 139.9L71.7977 140.034L71.7367 138.3L81.2651 137.965L81.3261 139.699L77.5078 139.833L77.8843 150.535L75.9926 150.602ZM87.5164 150.477C86.594 150.509 85.8006 150.391 85.1364 150.122C84.4718 149.842 83.9433 149.439 83.5507 148.915C83.1581 148.391 82.9203 147.78 82.8373 147.081L84.7772 146.89C84.8936 147.541 85.1853 148.022 85.6522 148.333C86.1304 148.632 86.7315 148.768 87.4554 148.743C88.2728 148.714 88.907 148.464 89.3581 147.992C89.8208 147.52 90.0378 146.875 90.0091 146.058C89.9902 145.52 89.863 145.063 89.6276 144.686C89.4034 144.296 89.0891 144.003 88.6847 143.807C88.2799 143.599 87.8031 143.505 87.2543 143.524C86.7054 143.543 86.2191 143.677 85.7953 143.926C85.3715 144.175 85.0733 144.507 84.9009 144.922L82.9391 144.991L83.5309 137.885L90.8173 137.629L90.8784 139.363L85.2734 139.56L84.8977 143.835L84.5907 143.583C84.7769 143.225 85.0179 142.93 85.3137 142.698C85.609 142.454 85.9532 142.266 86.3461 142.135C86.7503 141.992 87.1801 141.913 87.6355 141.897C88.4762 141.867 89.2124 142.023 89.844 142.363C90.4873 142.703 90.9954 143.188 91.3683 143.818C91.7412 144.447 91.942 145.171 91.9708 145.988C92.0008 146.841 91.8346 147.601 91.4723 148.268C91.1099 148.936 90.5907 149.463 89.9145 149.849C89.2383 150.235 88.4389 150.444 87.5164 150.477ZM99.0526 150.071C98.025 150.107 97.1225 149.876 96.345 149.377C95.5675 148.878 94.9573 148.152 94.5145 147.197C94.0717 146.242 93.8269 145.099 93.7801 143.768C93.7333 142.437 93.8971 141.279 94.2717 140.296C94.6576 139.3 95.2149 138.526 95.9438 137.975C96.6839 137.411 97.5677 137.111 98.5953 137.075C99.6346 137.038 100.537 137.275 101.304 137.786C102.081 138.285 102.691 139.012 103.134 139.966C103.588 140.921 103.839 142.069 103.887 143.412C103.933 144.743 103.769 145.901 103.395 146.884C103.02 147.868 102.463 148.636 101.722 149.188C100.982 149.74 100.092 150.034 99.0526 150.071ZM98.9916 148.337C99.9841 148.302 100.735 147.866 101.243 147.03C101.751 146.194 101.979 145.011 101.925 143.481C101.889 142.454 101.735 141.588 101.465 140.884C101.207 140.18 100.837 139.655 100.358 139.31C99.889 138.952 99.3219 138.785 98.6563 138.809C98.0024 138.832 97.4485 139.038 96.9945 139.428C96.5519 139.806 96.2205 140.356 96.0003 141.077C95.7918 141.797 95.7057 142.671 95.7418 143.699C95.7956 145.228 96.1055 146.393 96.6714 147.191C97.2373 147.99 98.0107 148.371 98.9916 148.337Z" fill="black"/>
<rect x="174.405" y="131.051" width="60.4658" height="20.1553" rx="10.0776" transform="rotate(-2.01503 174.405 131.051)" fill="#8A3DDB"/>
<g clip-path="url(#clip0_2546_24063)">
<path fill-rule="evenodd" clip-rule="evenodd" d="M185.13 136.813C185.118 136.465 185.244 136.126 185.482 135.871C185.72 135.616 186.049 135.465 186.397 135.453L191.652 135.268C192 135.256 192.339 135.383 192.594 135.62C192.849 135.858 193 136.187 193.012 136.536L193.197 141.79C193.209 142.139 193.082 142.478 192.845 142.733C192.607 142.988 192.278 143.138 191.929 143.15L186.675 143.335C186.326 143.347 185.987 143.221 185.732 142.983C185.477 142.745 185.327 142.416 185.315 142.068L185.13 136.813ZM186.42 136.11C186.246 136.116 186.082 136.191 185.963 136.319C185.844 136.446 185.781 136.616 185.787 136.79L185.972 142.045C185.978 142.219 186.053 142.383 186.18 142.502C186.308 142.621 186.477 142.684 186.651 142.678L191.906 142.493C192.08 142.487 192.245 142.412 192.364 142.285C192.483 142.157 192.546 141.988 192.54 141.813L192.355 136.559C192.349 136.385 192.274 136.22 192.146 136.101C192.019 135.982 191.849 135.919 191.675 135.925L186.42 136.11ZM183.886 138.83C183.711 138.836 183.547 138.911 183.428 139.038C183.309 139.166 183.246 139.335 183.252 139.51L183.437 144.764C183.443 144.939 183.518 145.103 183.645 145.222C183.773 145.341 183.942 145.404 184.117 145.398L189.371 145.213C189.545 145.207 189.71 145.132 189.829 145.004C189.948 144.877 190.011 144.707 190.005 144.533L189.982 143.876L190.639 143.853L190.662 144.51C190.674 144.859 190.547 145.198 190.31 145.453C190.072 145.708 189.743 145.858 189.394 145.87L184.14 146.055C183.791 146.067 183.452 145.94 183.197 145.703C182.942 145.465 182.792 145.136 182.78 144.787L182.595 139.533C182.583 139.184 182.709 138.845 182.947 138.59C183.185 138.335 183.514 138.185 183.862 138.173L184.519 138.15L184.542 138.807L183.886 138.83Z" fill="white"/>
</g>
<path d="M200.519 143.81C199.869 143.833 199.291 143.704 198.786 143.423C198.281 143.136 197.879 142.716 197.582 142.164C197.284 141.611 197.122 140.945 197.095 140.166C197.067 139.394 197.179 138.722 197.431 138.15C197.688 137.572 198.059 137.121 198.543 136.799C199.026 136.47 199.6 136.294 200.264 136.27C201.158 136.239 201.86 136.438 202.37 136.868C202.881 137.297 203.224 137.906 203.401 138.693L202.255 138.795C202.143 138.303 201.926 137.924 201.605 137.658C201.283 137.384 200.848 137.257 200.299 137.276C199.859 137.292 199.48 137.417 199.163 137.652C198.852 137.887 198.613 138.214 198.445 138.634C198.283 139.053 198.212 139.551 198.233 140.126C198.253 140.702 198.358 141.194 198.549 141.601C198.746 142.007 199.012 142.313 199.344 142.519C199.677 142.724 200.057 142.819 200.484 142.804C201.066 142.784 201.511 142.615 201.819 142.299C202.133 141.976 202.321 141.542 202.383 140.998L203.534 141.018C203.465 141.57 203.306 142.05 203.055 142.459C202.805 142.868 202.467 143.192 202.042 143.431C201.616 143.663 201.108 143.789 200.519 143.81ZM206.93 143.544C206.415 143.562 205.96 143.463 205.566 143.246C205.172 143.029 204.862 142.711 204.637 142.292C204.412 141.872 204.29 141.378 204.27 140.809C204.25 140.233 204.337 139.732 204.532 139.304C204.727 138.877 205.014 138.542 205.392 138.298C205.77 138.047 206.216 137.913 206.731 137.894C207.246 137.876 207.7 137.979 208.095 138.203C208.489 138.419 208.798 138.734 209.023 139.146C209.248 139.559 209.37 140.053 209.391 140.629C209.411 141.198 209.323 141.7 209.128 142.134C208.933 142.568 208.647 142.907 208.269 143.151C207.891 143.395 207.444 143.526 206.93 143.544ZM206.897 142.609C207.357 142.593 207.707 142.414 207.946 142.074C208.185 141.726 208.294 141.258 208.273 140.668C208.252 140.079 208.111 139.623 207.848 139.3C207.586 138.97 207.224 138.813 206.764 138.829C206.31 138.845 205.96 139.027 205.715 139.375C205.476 139.716 205.367 140.181 205.387 140.77C205.408 141.359 205.55 141.819 205.812 142.149C206.081 142.471 206.443 142.625 206.897 142.609ZM210.628 144.818L210.384 137.888L211.4 137.852L211.471 139.009L211.347 138.953C211.469 138.548 211.682 138.239 211.986 138.025C212.29 137.804 212.646 137.686 213.052 137.672C213.58 137.653 214.019 137.77 214.367 138.023C214.721 138.268 214.987 138.601 215.165 139.022C215.349 139.443 215.45 139.907 215.468 140.415C215.486 140.923 215.418 141.394 215.263 141.826C215.116 142.259 214.874 142.613 214.538 142.889C214.208 143.159 213.779 143.303 213.251 143.321C212.98 143.331 212.724 143.292 212.484 143.206C212.243 143.119 212.035 142.994 211.86 142.831C211.691 142.661 211.569 142.458 211.493 142.223L211.611 142.097L211.705 144.78L210.628 144.818ZM213.025 142.393C213.458 142.378 213.791 142.2 214.023 141.86C214.262 141.519 214.371 141.051 214.35 140.455C214.329 139.858 214.188 139.399 213.925 139.076C213.67 138.752 213.325 138.598 212.892 138.614C212.607 138.624 212.363 138.703 212.158 138.853C211.952 138.996 211.797 139.212 211.692 139.5C211.587 139.789 211.542 140.14 211.556 140.553C211.571 140.966 211.637 141.313 211.756 141.594C211.881 141.874 212.051 142.082 212.266 142.217C212.487 142.344 212.74 142.403 213.025 142.393ZM216.847 144.599L216.815 143.715L217.476 143.692C217.659 143.685 217.793 143.653 217.879 143.596C217.966 143.539 218.03 143.445 218.073 143.314L218.23 142.861L217.895 142.873L215.759 137.699L216.897 137.659L218.53 141.854L219.793 137.557L220.941 137.517L219 143.628C218.902 143.943 218.748 144.176 218.536 144.326C218.331 144.475 218.039 144.557 217.659 144.57L216.847 144.599Z" fill="white"/>
<path d="M43.2726 186.838L40.4075 179.715L41.3626 179.682L43.8181 185.862L45.8231 179.525L46.7782 179.491L44.4207 186.797L43.2726 186.838ZM49.0488 186.756C48.4933 186.776 48.0451 186.663 47.7042 186.417C47.37 186.171 47.1948 185.818 47.1786 185.357C47.1624 184.897 47.2851 184.529 47.5467 184.256C47.8084 183.982 48.232 183.781 48.8175 183.652L50.7152 183.229C50.6992 182.775 50.5789 182.44 50.3543 182.224C50.1364 182.008 49.8141 181.907 49.3874 181.922C49.0148 181.935 48.7231 182.031 48.5123 182.207C48.3013 182.378 48.1606 182.62 48.0903 182.934L47.1835 182.895C47.2672 182.384 47.4967 181.965 47.8718 181.64C48.2535 181.308 48.7491 181.131 49.3588 181.11C50.0497 181.085 50.585 181.263 50.9646 181.643C51.3439 182.016 51.5456 182.545 51.5697 183.229L51.648 185.454C51.6523 185.576 51.6757 185.664 51.7183 185.716C51.7673 185.762 51.8427 185.783 51.9443 185.78L52.1577 185.772L52.1841 186.524C52.1573 186.532 52.1134 186.537 52.0524 186.539C51.9917 186.548 51.9274 186.553 51.8597 186.556C51.6158 186.564 51.4147 186.534 51.2563 186.465C51.1044 186.389 50.9917 186.271 50.9183 186.111C50.8446 185.944 50.803 185.725 50.7934 185.454L50.8958 185.471C50.8564 185.703 50.7487 185.917 50.5725 186.113C50.396 186.302 50.1742 186.456 49.9071 186.574C49.6397 186.685 49.3536 186.746 49.0488 186.756ZM49.1036 186.002C49.4626 185.989 49.7651 185.911 50.0109 185.766C50.2633 185.615 50.4531 185.418 50.5802 185.177C50.7071 184.928 50.7653 184.655 50.7548 184.357L50.7412 183.97L49.0051 184.357C48.6417 184.438 48.3913 184.552 48.2541 184.699C48.1234 184.839 48.062 185.021 48.0698 185.245C48.0787 185.495 48.1736 185.688 48.3547 185.825C48.5424 185.954 48.792 186.013 49.1036 186.002ZM54.1453 186.455C53.8337 186.466 53.5768 186.394 53.3747 186.238C53.1725 186.082 53.0652 185.828 53.0528 185.476L52.8348 179.278L53.6883 179.248L53.9038 185.375C53.9076 185.483 53.9377 185.567 53.994 185.626C54.0569 185.678 54.1425 185.702 54.2509 185.698L54.7183 185.682L54.7448 186.434L54.1453 186.455ZM55.718 186.4L55.5286 181.015L56.3821 180.985L56.5715 186.37L55.718 186.4ZM55.4786 180.172L55.4435 179.176L56.3377 179.145L56.3727 180.14L55.4786 180.172ZM60.0139 186.371C59.5465 186.387 59.136 186.286 58.7825 186.068C58.4357 185.85 58.1635 185.534 57.9658 185.12C57.7681 184.707 57.6592 184.212 57.6389 183.636C57.6187 183.06 57.6926 182.559 57.8607 182.133C58.0288 181.707 58.2782 181.372 58.6087 181.13C58.9461 180.888 59.3485 180.758 59.8159 180.742C60.1749 180.729 60.5061 180.795 60.8097 180.941C61.113 181.079 61.344 181.285 61.5028 181.557L61.412 178.976L62.2655 178.946L62.5193 186.16L61.7471 186.188L61.688 185.376C61.5492 185.672 61.3304 185.911 61.0316 186.091C60.7325 186.264 60.3932 186.357 60.0139 186.371ZM60.158 185.552C60.4764 185.54 60.7411 185.45 60.9521 185.28C61.17 185.109 61.3312 184.873 61.4359 184.571C61.5403 184.262 61.5854 183.904 61.5711 183.498C61.5563 183.078 61.4861 182.721 61.3604 182.427C61.2348 182.133 61.0575 181.912 60.8285 181.764C60.606 181.609 60.3356 181.537 60.0172 181.548C59.543 181.565 59.17 181.758 58.8981 182.127C58.6328 182.489 58.5111 182.982 58.533 183.605C58.5547 184.221 58.7108 184.704 59.0011 185.053C59.2982 185.402 59.6839 185.568 60.158 185.552ZM68.6535 185.945C68.1658 185.962 67.7995 185.863 67.5545 185.647C67.3164 185.432 67.1889 185.087 67.1723 184.613L66.9871 179.35L67.8406 179.32L68.025 184.563C68.0336 184.807 68.0938 184.974 68.2055 185.065C68.3172 185.156 68.4848 185.198 68.7084 185.19L69.4806 185.163L69.507 185.915L68.6535 185.945ZM66.2653 181.39L66.2389 180.638L69.3175 180.529L69.344 181.281L66.2653 181.39ZM70.6017 185.876L70.4123 180.491L71.2658 180.461L71.4552 185.846L70.6017 185.876ZM70.3623 179.648L70.3272 178.653L71.2214 178.621L71.2564 179.617L70.3623 179.648ZM74.0398 185.755C73.7282 185.766 73.4714 185.694 73.2692 185.538C73.067 185.382 72.9598 185.128 72.9474 184.776L72.7293 178.578L73.5828 178.548L73.7984 184.675C73.8022 184.783 73.8323 184.867 73.8886 184.926C73.9515 184.978 74.0371 185.002 74.1455 184.999L74.6129 184.982L74.6393 185.734L74.0398 185.755ZM76.6494 185.663C76.3379 185.674 76.081 185.602 75.8788 185.446C75.6767 185.291 75.5694 185.037 75.557 184.684L75.3389 178.486L76.1924 178.456L76.408 184.583C76.4118 184.692 76.4419 184.775 76.4982 184.834C76.5611 184.886 76.6467 184.911 76.7551 184.907L77.2225 184.89L77.2489 185.642L76.6494 185.663ZM83.0929 185.599C82.2936 185.627 81.6707 185.463 81.224 185.106C80.7772 184.741 80.5263 184.262 80.4715 183.667L81.3736 183.574C81.4298 184.013 81.6102 184.322 81.9149 184.501C82.2264 184.68 82.6091 184.762 83.0629 184.746C83.3745 184.735 83.661 184.684 83.9223 184.593C84.1834 184.496 84.3918 184.35 84.5477 184.154C84.7034 183.952 84.7755 183.689 84.7641 183.363C84.7471 182.882 84.5756 182.536 84.2493 182.324C83.9231 182.111 83.4992 182.014 82.9776 182.033L82.4086 182.053L82.3786 181.199L82.9476 181.179C83.3743 181.164 83.7236 181.067 83.9954 180.888C84.2739 180.709 84.4059 180.412 84.3914 179.999C84.3783 179.626 84.2464 179.35 83.9959 179.169C83.7519 178.98 83.3895 178.895 82.9085 178.912C82.4344 178.929 82.0786 179.033 81.8411 179.224C81.6105 179.415 81.4771 179.671 81.4409 179.991L80.5243 179.962C80.5729 179.418 80.798 178.973 81.1995 178.626C81.6008 178.273 82.1605 178.084 82.8785 178.058C83.3662 178.041 83.789 178.108 84.147 178.258C84.5047 178.401 84.7835 178.615 84.9834 178.9C85.1833 179.184 85.2903 179.527 85.3044 179.926C85.3201 180.373 85.1906 180.741 84.9159 181.028C84.6477 181.309 84.2411 181.51 83.696 181.631L83.6895 181.448C84.2812 181.495 84.756 181.689 85.1139 182.029C85.4717 182.369 85.6599 182.803 85.6785 183.331C85.6947 183.792 85.5934 184.189 85.3745 184.522C85.1624 184.855 84.8595 185.113 84.4658 185.297C84.0722 185.48 83.6145 185.581 83.0929 185.599ZM88.1704 185.258L87.9823 179.913L86.4786 179.966L86.4521 179.214L87.0618 179.193C87.3259 179.184 87.5347 179.142 87.6881 179.069C87.8483 178.996 87.9594 178.877 88.0214 178.712C88.0835 178.547 88.1095 178.322 88.0995 178.037L88.7904 178.013L89.0442 185.227L88.1704 185.258ZM95.6827 185.156C95.2356 185.172 94.8356 185.081 94.4828 184.883C94.1297 184.679 93.8483 184.39 93.6385 184.018C93.4355 183.645 93.3219 183.212 93.2977 182.717L94.1897 182.625C94.216 183.18 94.3563 183.602 94.6107 183.892C94.865 184.181 95.2123 184.318 95.6526 184.303C96.1132 184.287 96.4599 184.115 96.6925 183.788C96.932 183.461 97.0414 183.006 97.0209 182.424L96.8558 177.729L97.7296 177.699L97.8947 182.393C97.914 182.941 97.836 183.422 97.6606 183.835C97.485 184.242 97.2283 184.559 96.8905 184.788C96.5594 185.017 96.1568 185.14 95.6827 185.156ZM101.033 184.927C100.477 184.947 100.029 184.834 99.688 184.588C99.3538 184.342 99.1786 183.989 99.1624 183.528C99.1462 183.068 99.2689 182.701 99.5306 182.427C99.7922 182.153 100.216 181.952 100.801 181.823L102.699 181.4C102.683 180.946 102.563 180.611 102.338 180.395C102.12 180.179 101.798 180.078 101.371 180.093C100.999 180.107 100.707 180.202 100.496 180.379C100.285 180.549 100.144 180.791 100.074 181.106L99.1673 181.066C99.251 180.555 99.4805 180.136 99.8556 179.811C100.237 179.479 100.733 179.302 101.343 179.281C102.034 179.256 102.569 179.434 102.948 179.814C103.328 180.187 103.529 180.716 103.554 181.4L103.632 183.625C103.636 183.747 103.66 183.835 103.702 183.887C103.751 183.933 103.827 183.954 103.928 183.951L104.141 183.943L104.168 184.695C104.141 184.703 104.097 184.708 104.036 184.71C103.975 184.719 103.911 184.724 103.844 184.727C103.6 184.735 103.399 184.705 103.24 184.636C103.088 184.56 102.976 184.442 102.902 184.282C102.828 184.115 102.787 183.896 102.777 183.625L102.88 183.642C102.84 183.874 102.733 184.088 102.556 184.284C102.38 184.473 102.158 184.627 101.891 184.745C101.624 184.856 101.337 184.917 101.033 184.927ZM101.087 184.173C101.446 184.16 101.749 184.082 101.995 183.937C102.247 183.786 102.437 183.589 102.564 183.348C102.691 183.099 102.749 182.826 102.739 182.528L102.725 182.141L100.989 182.528C100.625 182.609 100.375 182.723 100.238 182.87C100.107 183.01 100.046 183.192 100.054 183.416C100.062 183.666 100.157 183.86 100.339 183.996C100.526 184.125 100.776 184.184 101.087 184.173ZM105.132 184.661L104.942 179.276L105.725 179.248L105.804 180.619L105.699 180.531C105.755 180.21 105.865 179.945 106.027 179.736C106.189 179.52 106.387 179.357 106.62 179.247C106.86 179.137 107.119 179.077 107.397 179.068C107.81 179.053 108.152 179.133 108.423 179.306C108.7 179.479 108.909 179.72 109.048 180.027C109.195 180.327 109.274 180.667 109.288 181.046L109.41 184.511L108.556 184.541L108.443 181.32C108.431 180.988 108.381 180.712 108.291 180.491C108.209 180.263 108.081 180.095 107.907 179.986C107.734 179.87 107.512 179.816 107.241 179.826C106.827 179.84 106.49 179.985 106.228 180.258C105.973 180.525 105.854 180.909 105.872 181.41L105.985 184.631L105.132 184.661ZM113.373 184.371C113.355 183.863 113.417 183.403 113.558 182.991C113.706 182.572 113.973 182.17 114.36 181.783C114.753 181.396 115.302 181 116.007 180.596C116.333 180.408 116.595 180.236 116.793 180.08C116.991 179.924 117.134 179.759 117.223 179.587C117.312 179.414 117.352 179.206 117.343 178.962C117.334 178.711 117.273 178.496 117.158 178.317C117.043 178.131 116.875 177.988 116.654 177.887C116.441 177.786 116.174 177.741 115.856 177.753C115.348 177.77 114.95 177.917 114.661 178.191C114.379 178.466 114.209 178.848 114.152 179.339L113.235 179.31C113.292 178.602 113.543 178.031 113.989 177.594C114.435 177.158 115.047 176.927 115.826 176.899C116.321 176.882 116.747 176.955 117.105 177.119C117.464 177.282 117.74 177.52 117.934 177.832C118.135 178.137 118.242 178.496 118.257 178.909C118.27 179.275 118.22 179.596 118.108 179.871C117.995 180.139 117.797 180.394 117.514 180.634C117.238 180.875 116.853 181.136 116.361 181.418C115.723 181.786 115.241 182.152 114.915 182.516C114.595 182.88 114.43 183.201 114.42 183.48L118.413 183.339L118.443 184.193L113.373 184.371ZM122.324 184.219C121.741 184.24 121.231 184.105 120.794 183.815C120.356 183.525 120.009 183.103 119.752 182.55C119.502 181.995 119.363 181.332 119.336 180.56C119.309 179.788 119.401 179.117 119.611 178.546C119.828 177.969 120.145 177.52 120.561 177.201C120.977 176.874 121.476 176.7 122.058 176.68C122.648 176.659 123.161 176.797 123.599 177.094C124.036 177.383 124.38 177.805 124.63 178.359C124.887 178.913 125.029 179.58 125.057 180.359C125.084 181.131 124.989 181.802 124.771 182.373C124.561 182.943 124.248 183.388 123.832 183.708C123.416 184.028 122.913 184.198 122.324 184.219ZM122.294 183.366C122.917 183.344 123.389 183.076 123.71 182.563C124.031 182.043 124.175 181.319 124.142 180.391C124.12 179.768 124.024 179.242 123.853 178.814C123.688 178.379 123.456 178.055 123.157 177.842C122.865 177.621 122.508 177.519 122.088 177.533C121.675 177.548 121.327 177.675 121.044 177.916C120.767 178.15 120.559 178.489 120.418 178.935C120.285 179.374 120.229 179.905 120.251 180.528C120.283 181.456 120.478 182.168 120.834 182.664C121.191 183.153 121.677 183.387 122.294 183.366ZM126.202 183.92C126.185 183.412 126.246 182.952 126.388 182.54C126.536 182.121 126.803 181.718 127.19 181.332C127.583 180.945 128.132 180.549 128.837 180.144C129.162 179.957 129.424 179.785 129.622 179.628C129.82 179.472 129.964 179.308 130.053 179.135C130.141 178.962 130.182 178.754 130.173 178.51C130.164 178.26 130.102 178.045 129.988 177.866C129.873 177.68 129.705 177.537 129.484 177.436C129.27 177.335 129.004 177.29 128.686 177.301C128.178 177.319 127.779 177.465 127.491 177.74C127.209 178.014 127.039 178.397 126.982 178.887L126.065 178.858C126.122 178.151 126.373 177.579 126.819 177.143C127.264 176.707 127.877 176.475 128.656 176.448C129.15 176.43 129.577 176.503 129.935 176.667C130.294 176.831 130.57 177.069 130.764 177.381C130.965 177.686 131.072 178.045 131.087 178.458C131.1 178.824 131.05 179.144 130.937 179.419C130.825 179.688 130.627 179.942 130.344 180.183C130.067 180.423 129.683 180.684 129.191 180.966C128.553 181.334 128.071 181.701 127.745 182.065C127.425 182.429 127.26 182.75 127.249 183.028L131.243 182.888L131.273 183.741L126.202 183.92ZM134.96 183.774C134.418 183.793 133.95 183.688 133.555 183.458C133.167 183.22 132.863 182.865 132.643 182.391C132.43 181.917 132.311 181.338 132.287 180.654C132.266 180.058 132.294 179.497 132.37 178.972C132.453 178.447 132.596 177.984 132.799 177.584C133.009 177.176 133.289 176.854 133.64 176.618C133.998 176.375 134.444 176.244 134.98 176.225C135.623 176.203 136.127 176.344 136.49 176.65C136.853 176.949 137.115 177.351 137.275 177.854L136.363 177.967C136.272 177.685 136.122 177.463 135.913 177.301C135.71 177.139 135.409 177.065 135.01 177.079C134.413 177.1 133.952 177.37 133.624 177.89C133.303 178.41 133.151 179.186 133.167 180.216L132.982 180.182C133.048 179.935 133.169 179.707 133.345 179.497C133.527 179.281 133.752 179.107 134.018 178.975C134.291 178.837 134.601 178.762 134.946 178.749C135.42 178.733 135.841 178.82 136.207 179.01C136.573 179.201 136.861 179.479 137.07 179.845C137.286 180.203 137.403 180.63 137.421 181.124C137.439 181.653 137.347 182.114 137.144 182.507C136.94 182.894 136.649 183.2 136.27 183.423C135.898 183.64 135.462 183.757 134.96 183.774ZM134.951 182.92C135.425 182.904 135.806 182.741 136.093 182.432C136.387 182.117 136.525 181.692 136.506 181.156C136.494 180.824 136.42 180.539 136.283 180.3C136.145 180.06 135.959 179.88 135.724 179.76C135.489 179.632 135.219 179.574 134.915 179.585C134.589 179.596 134.301 179.674 134.048 179.819C133.795 179.956 133.598 180.15 133.458 180.399C133.318 180.648 133.253 180.939 133.265 181.27C133.277 181.602 133.351 181.895 133.489 182.148C133.634 182.4 133.83 182.597 134.079 182.737C134.328 182.871 134.619 182.932 134.951 182.92Z" fill="#8E8E93"/>
<rect x="14.8333" y="31.8379" width="43.875" height="43.875" rx="12.675" transform="rotate(-2.01503 14.8333 31.8379)" fill="url(#paint1_linear_2546_24063)"/>
<g clip-path="url(#clip1_2546_24063)">
<path d="M47.451 47.5872L43.4248 47.7289C43.4682 47.6894 43.5128 47.6511 43.5551 47.6094C44.2377 46.9585 44.6184 46.0528 44.6059 45.1098C44.5938 42.9542 42.7697 41.2536 40.6186 41.3924C39.6765 41.4458 38.7994 41.8893 38.1979 42.6163C37.7867 43.1283 37.4579 43.7012 37.2234 44.3146C36.9464 43.7192 36.5781 43.1708 36.132 42.689C35.4809 42.0061 34.5747 41.6253 33.6312 41.6382C31.4757 41.6509 29.7756 43.4756 29.915 45.6266C29.9688 46.5683 30.4123 47.445 31.1389 48.0462C31.1839 48.0825 31.2311 48.1176 31.2773 48.1562L27.251 48.2979C26.2368 48.3336 25.4436 49.1847 25.4793 50.1989L25.6085 53.8716C25.6442 54.8858 26.4953 55.679 27.5095 55.6434L27.7679 62.9888C27.8036 64.003 28.6547 64.7963 29.6689 64.7606L46.1962 64.1791C47.2104 64.1434 48.0036 63.2923 47.9679 62.2781L47.7095 54.9327C48.7237 54.897 49.5169 54.0459 49.4812 53.0317L49.352 49.3589C49.3163 48.3448 48.4652 47.5516 47.451 47.5872ZM39.6179 43.7845C39.9004 43.4496 40.3098 43.2477 40.7475 43.2276L40.8037 43.2256C41.873 43.1947 42.7589 44.0484 42.7676 45.1181C42.7783 45.5561 42.6057 45.9787 42.2915 46.284C41.2362 47.2864 39.4405 47.6898 38.3245 47.8485C38.4195 46.6283 38.7361 44.8486 39.6179 43.7845ZM32.2636 44.0846C32.6068 43.7164 33.0815 43.4986 33.5845 43.4785L33.6407 43.4765C34.0787 43.4658 34.5013 43.6384 34.8066 43.9526C35.8079 45.0068 36.2111 46.799 36.3697 47.9104C35.25 47.8349 33.4337 47.5541 32.3118 46.6294C31.9769 46.3469 31.7751 45.9375 31.7549 45.4998C31.7222 44.979 31.9044 44.4676 32.259 44.0847L32.2636 44.0846ZM27.3156 50.1343L36.4975 49.8112L36.6267 53.4839L27.4449 53.807L27.3156 50.1343ZM29.3458 55.5787L36.6913 55.3203L36.9497 62.6658L29.6043 62.9242L29.3458 55.5787ZM46.1315 62.3427L38.7861 62.6012L38.5276 55.2557L45.8731 54.9973L46.1315 62.3427ZM47.6449 53.0963L38.463 53.4193L38.3338 49.7466L47.5156 49.4236L47.6449 53.0963Z" fill="white"/>
</g>
<path d="M75.9604 53.5067C74.6259 53.5537 73.4916 53.394 72.5572 53.0275C71.6229 52.6611 70.8897 52.1187 70.3576 51.4003C69.8256 50.6818 69.5039 49.8332 69.3927 48.8542L72.9302 48.5685C73.093 49.2692 73.4184 49.7876 73.9063 50.1236C74.409 50.4438 75.0592 50.5899 75.8568 50.5618C76.7464 50.5305 77.4354 50.2529 77.9237 49.7289C78.4274 49.2044 78.6636 48.4973 78.6323 47.6077C78.6118 47.0248 78.4713 46.523 78.2108 46.1022C77.9656 45.6808 77.6239 45.3549 77.1858 45.1246C76.7477 44.8943 76.2296 44.7897 75.6314 44.8108C74.9718 44.834 74.4094 44.9996 73.9442 45.3078C73.479 45.6159 73.1622 45.9957 72.9938 46.447L69.4966 46.57L70.2881 36.9823L80.7104 36.6156L80.814 39.5605L73.3596 39.8228L72.929 44.6064L72.5257 44.275C72.7724 43.867 73.0827 43.5183 73.4564 43.2287C73.845 42.9232 74.2973 42.6846 74.8134 42.5129C75.329 42.3258 75.9012 42.2212 76.53 42.1991C77.6651 42.1592 78.6474 42.3627 79.4771 42.8095C80.3221 43.2559 80.9815 43.8854 81.4555 44.698C81.9294 45.5106 82.1848 46.4384 82.2215 47.4814C82.263 48.6625 82.0308 49.6996 81.5247 50.5927C81.0186 51.4859 80.2908 52.1872 79.3412 52.6967C78.3911 53.1909 77.2641 53.4609 75.9604 53.5067ZM91.7641 52.9507C90.3223 53.0014 89.0681 52.7077 88.0013 52.0695C86.934 51.416 86.0942 50.4627 85.4819 49.2096C84.8849 47.9559 84.5554 46.4471 84.4934 44.6832C84.4313 42.9193 84.6616 41.3909 85.1844 40.0978C85.7066 38.7894 86.4693 37.7721 87.4727 37.0457C88.4914 36.3188 89.7217 35.9299 91.1635 35.8792C92.5899 35.829 93.8292 36.131 94.8811 36.785C95.9484 37.4386 96.7885 38.3995 97.4013 39.668C98.0136 40.9211 98.3508 42.4296 98.4129 44.1935C98.4744 45.9421 98.2438 47.4629 97.721 48.7559C97.2137 50.0484 96.4506 51.0581 95.4319 51.7851C94.4132 52.512 93.1906 52.9005 91.7641 52.9507ZM91.6605 50.0058C92.7342 49.968 93.5383 49.4713 94.0729 48.5157C94.6229 47.5596 94.8654 46.1612 94.8007 44.3206C94.757 43.0782 94.5902 42.0474 94.3003 41.2284C94.0257 40.4087 93.6281 39.8007 93.1074 39.4044C92.6014 38.9922 91.988 38.7988 91.2671 38.8242C90.5309 38.8501 89.9172 39.0867 89.4262 39.5339C88.9499 39.9653 88.596 40.5998 88.3644 41.4372C88.1481 42.2741 88.0618 43.3138 88.1055 44.5562C88.1703 46.3967 88.5029 47.7749 89.1033 48.6905C89.7191 49.6057 90.5715 50.0441 91.6605 50.0058ZM104.16 43.7149C103.056 43.7537 102.131 43.4561 101.387 42.8219C100.643 42.1724 100.246 41.165 100.198 39.7999C100.15 38.4195 100.474 37.3868 101.172 36.7019C101.87 36.017 102.771 35.6551 103.875 35.6163C104.979 35.5774 105.896 35.8753 106.625 36.5101C107.369 37.1442 107.765 38.1516 107.814 39.532C107.862 40.8971 107.537 41.9298 106.84 42.63C106.158 43.3144 105.264 43.676 104.16 43.7149ZM104.099 41.9663C104.589 41.949 104.951 41.7444 105.183 41.3523C105.415 40.9602 105.517 40.3807 105.49 39.6138C105.463 38.8468 105.32 38.276 105.061 37.9012C104.802 37.5263 104.427 37.3476 103.937 37.3648C103.461 37.3816 103.1 37.5862 102.852 37.9789C102.621 38.371 102.518 38.9505 102.545 39.7174C102.572 40.4843 102.715 41.0552 102.974 41.43C103.248 41.8043 103.623 41.983 104.099 41.9663ZM114.126 51.9797C113.022 52.0185 112.097 51.7209 111.353 51.0867C110.609 50.4372 110.212 49.4298 110.164 48.0647C110.116 46.6843 110.44 45.6516 111.138 44.9667C111.836 44.2818 112.737 43.9199 113.841 43.8811C114.945 43.8422 115.87 44.1399 116.614 44.774C117.358 45.4082 117.754 46.4155 117.803 47.796C117.851 49.1611 117.526 50.1938 116.829 50.894C116.131 51.5789 115.23 51.9408 114.126 51.9797ZM114.064 50.2311C114.555 50.2138 114.917 50.0091 115.148 49.6171C115.38 49.225 115.483 48.6455 115.456 47.8786C115.429 47.1116 115.286 46.5408 115.027 46.1659C114.768 45.7911 114.393 45.6123 113.902 45.6296C113.427 45.6463 113.066 45.851 112.818 46.2437C112.586 46.6357 112.484 47.2153 112.511 47.9822C112.538 48.7491 112.681 49.3199 112.94 49.6948C113.214 50.0691 113.589 50.2478 114.064 50.2311ZM102.8 52.1939L113.085 35.4765L115.201 35.4021L104.916 52.1194L102.8 52.1939ZM132.946 51.5018C131.29 51.5601 129.851 51.2651 128.63 50.617C127.425 49.9683 126.478 49.0188 125.789 47.7684C125.115 46.5174 124.748 45.0177 124.686 43.2691C124.625 41.5206 124.886 39.9987 125.47 38.7035C126.069 37.3924 126.947 36.371 128.104 35.6392C129.275 34.8915 130.689 34.4886 132.346 34.4303C134.002 34.372 135.433 34.6749 136.639 35.3389C137.86 35.987 138.807 36.9442 139.482 38.2105C140.171 39.4609 140.546 40.9604 140.607 42.709C140.669 44.4575 140.4 45.9797 139.801 47.2754C139.216 48.5706 138.338 49.5844 137.166 50.3167C136.009 51.0485 134.603 51.4435 132.946 51.5018ZM132.82 48.5576C133.74 48.5253 134.515 48.283 135.144 47.8309C135.788 47.3629 136.264 46.7088 136.572 45.8686C136.896 45.028 137.037 44.0171 136.995 42.8361C136.954 41.655 136.742 40.6566 136.36 39.8407C135.993 39.009 135.472 38.3823 134.797 37.9607C134.137 37.5385 133.347 37.3437 132.426 37.376C131.521 37.4079 130.755 37.6575 130.126 38.125C129.497 38.5925 129.022 39.2542 128.699 40.1103C128.39 40.9504 128.257 41.961 128.298 43.142C128.34 44.3231 128.544 45.3218 128.911 46.1382C129.293 46.954 129.813 47.573 130.473 47.9952C131.148 48.4015 131.93 48.5889 132.82 48.5576ZM144.497 50.7268L144.057 38.2338C144.014 37.0067 144.311 36.0518 144.947 35.3691C145.583 34.671 146.599 34.2974 147.994 34.2483L150.617 34.156L150.708 36.7328L148.821 36.7992C148.346 36.8159 148.005 36.9508 147.799 37.2038C147.592 37.4414 147.497 37.7979 147.514 38.2734L147.948 50.6054L144.497 50.7268ZM142.375 41.495L142.285 38.9181L150.59 38.6259L150.681 41.2027L142.375 41.495ZM152.503 50.4451L152.064 37.9521C152.021 36.725 152.317 35.7701 152.954 35.0874C153.589 34.3893 154.605 34.0157 156.001 33.9666L158.624 33.8743L158.715 36.4511L156.828 36.5175C156.352 36.5342 156.012 36.6691 155.806 36.9221C155.599 37.1597 155.504 37.5162 155.521 37.9917L155.955 50.3237L152.503 50.4451ZM150.382 41.2133L150.291 38.6364L158.597 38.3442L158.688 40.921L150.382 41.2133Z" fill="#8E0FFF"/>
<path d="M69.8306 71.3646L69.5768 64.1506L74.1084 63.9911L74.1384 64.8446L70.0437 64.9887L70.4649 64.5263L70.5814 67.8386L70.1288 67.4069L74.0406 67.2693L74.0699 68.1025L70.1581 68.2401L70.5793 67.7776L70.7044 71.3339L69.8306 71.3646ZM75.5034 71.165L75.3139 65.7799L76.1674 65.7499L76.3569 71.135L75.5034 71.165ZM75.2639 64.9373L75.2289 63.9415L76.123 63.9101L76.1581 64.9058L75.2639 64.9373ZM78.0832 71.0743L77.8938 65.6891L78.6456 65.6627L78.7342 67.0228L78.6518 66.9951C78.7034 66.5321 78.8372 66.1917 79.0533 65.9739C79.276 65.749 79.577 65.6299 79.9564 65.6166L80.4847 65.598L80.5133 66.4108L79.9951 66.429C79.7242 66.4386 79.499 66.4974 79.3197 66.6054C79.1469 66.7064 79.0166 66.8568 78.9287 67.0566C78.8473 67.2494 78.8118 67.4948 78.8223 67.7928L78.9367 71.0442L78.0832 71.0743ZM83.4916 71.006C83.0107 71.023 82.5981 70.9595 82.254 70.8156C81.9166 70.6715 81.6483 70.4673 81.4491 70.203C81.2564 69.9317 81.1403 69.6204 81.1008 69.2692L81.9928 69.1767C82.0585 69.5 82.2065 69.7559 82.4369 69.9444C82.6671 70.1262 83.0092 70.2092 83.463 70.1932C83.8288 70.1803 84.118 70.1125 84.3307 69.9897C84.55 69.8599 84.655 69.6629 84.6457 69.3988C84.6407 69.2565 84.6026 69.1392 84.5316 69.0467C84.4605 68.9543 84.3255 68.8776 84.1267 68.8168C83.9276 68.7492 83.6339 68.6883 83.2454 68.6342C82.7272 68.5575 82.3168 68.4566 82.014 68.3316C81.7177 68.1996 81.5016 68.0343 81.3658 67.8356C81.2365 67.6299 81.1668 67.3848 81.1568 67.1003C81.1399 66.6194 81.3022 66.2203 81.6437 65.9031C81.9849 65.5791 82.4807 65.4057 83.131 65.3828C83.5713 65.3673 83.9433 65.4356 84.2471 65.5877C84.5574 65.7327 84.8018 65.9344 84.9805 66.1926C85.1657 66.4438 85.2908 66.7243 85.356 67.0339L84.464 67.1264C84.4167 66.9381 84.3363 66.7748 84.2229 66.6364C84.1093 66.4912 83.963 66.381 83.784 66.3059C83.6048 66.2241 83.3933 66.1874 83.1494 66.196C82.7633 66.2096 82.4815 66.2941 82.3038 66.4496C82.1262 66.605 82.0414 66.7979 82.0495 67.0282C82.0557 67.2043 82.1015 67.3485 82.1868 67.4608C82.2787 67.5661 82.4207 67.6527 82.613 67.7205C82.8051 67.7816 83.0612 67.8336 83.3815 67.8766C83.9335 67.9521 84.3643 68.0522 84.6739 68.177C84.9835 68.3017 85.2027 68.4602 85.3315 68.6523C85.4604 68.8445 85.5298 69.0828 85.5398 69.3673C85.5515 69.6992 85.4667 69.9871 85.2853 70.2308C85.1105 70.4676 84.8661 70.6525 84.552 70.7856C84.2447 70.9185 83.8913 70.992 83.4916 71.006ZM88.5183 70.7071C88.0305 70.7243 87.6642 70.6253 87.4193 70.4101C87.1811 70.1946 87.0537 69.8498 87.037 69.3757L86.8518 64.1125L87.7053 64.0824L87.8898 69.3253C87.8983 69.5692 87.9585 69.7366 88.0702 69.8276C88.1819 69.9187 88.3495 69.9602 88.5731 69.9524L89.3453 69.9252L89.3717 70.6771L88.5183 70.7071ZM86.1301 66.1522L86.1036 65.4003L89.1823 65.292L89.2087 66.0438L86.1301 66.1522ZM93.0662 70.5471L92.8767 65.162L93.6286 65.1355L93.7171 66.4956L93.6348 66.468C93.6863 66.005 93.8201 65.6646 94.0363 65.4467C94.259 65.2219 94.56 65.1028 94.9393 65.0894L95.4676 65.0708L95.4962 65.8837L94.9781 65.9019C94.7071 65.9114 94.482 65.9702 94.3027 66.0783C94.1299 66.1793 93.9995 66.3297 93.9116 66.5295C93.8302 66.7222 93.7948 66.9676 93.8053 67.2657L93.9196 70.5171L93.0662 70.5471ZM98.6168 70.4739C98.1088 70.4918 97.6644 70.3921 97.2838 70.1749C96.9099 69.9575 96.6139 69.6423 96.3959 69.2295C96.1845 68.8097 96.0688 68.3153 96.0487 67.7463C96.0287 67.1773 96.1095 66.6793 96.2912 66.2525C96.4796 65.8253 96.7493 65.4903 97.1002 65.2474C97.4577 64.9974 97.8836 64.8637 98.3781 64.8463C98.8455 64.8299 99.2626 64.9271 99.6295 65.138C99.9961 65.3422 100.285 65.6508 100.496 66.0638C100.714 66.4766 100.834 66.9845 100.855 67.5873L100.864 67.8414L96.9522 67.979C97.0063 68.5536 97.174 68.9817 97.4551 69.2635C97.7431 69.545 98.1208 69.6775 98.5882 69.661C98.9404 69.6486 99.2254 69.5572 99.4433 69.3868C99.6676 69.2094 99.819 68.9836 99.8976 68.7096L100.815 68.7485C100.689 69.2344 100.432 69.6402 100.044 69.9659C99.6614 70.2845 99.1858 70.4539 98.6168 70.4739ZM96.9257 67.2271L99.9028 67.1224C99.8438 66.6022 99.6779 66.2249 99.4051 65.9903C99.1392 65.7555 98.8063 65.6451 98.4067 65.6592C97.9935 65.6737 97.656 65.8145 97.3941 66.0814C97.1387 66.3413 96.9826 66.7232 96.9257 67.2271ZM102.106 70.2291L101.916 64.8439L102.698 64.8164L102.777 66.187L102.672 66.0992C102.729 65.7784 102.838 65.5134 103 65.3043C103.162 65.0883 103.36 64.9254 103.594 64.8154C103.834 64.7053 104.093 64.6453 104.371 64.6355C104.784 64.621 105.126 64.7005 105.396 64.8741C105.674 65.0474 105.882 65.2877 106.022 65.5947C106.168 65.8948 106.248 66.2345 106.261 66.6138L106.383 70.0786L105.53 70.1086L105.416 66.8877C105.405 66.5558 105.354 66.2795 105.265 66.0588C105.182 65.8311 105.054 65.6627 104.881 65.5535C104.707 65.4375 104.485 65.3843 104.214 65.3938C103.801 65.4084 103.464 65.5525 103.202 65.8262C102.947 66.0929 102.828 66.4769 102.846 66.9781L102.959 70.199L102.106 70.2291ZM109.574 69.9663C109.086 69.9835 108.72 69.8845 108.475 69.6693C108.237 69.4538 108.109 69.109 108.092 68.6349L107.907 63.3717L108.761 63.3416L108.945 68.5845C108.954 68.8284 109.014 68.9958 109.126 69.0868C109.237 69.1779 109.405 69.2194 109.629 69.2116L110.401 69.1844L110.427 69.9363L109.574 69.9663ZM107.186 65.4114L107.159 64.6595L110.238 64.5512L110.264 65.303L107.186 65.4114ZM112.94 69.97C112.384 69.9895 111.936 69.8764 111.595 69.6307C111.261 69.3847 111.085 69.0314 111.069 68.5708C111.053 68.1102 111.176 67.7431 111.437 67.4693C111.699 67.1956 112.123 66.9942 112.708 66.8651L114.606 66.4423C114.59 65.9884 114.47 65.6536 114.245 65.4377C114.027 65.2215 113.705 65.1209 113.278 65.136C112.906 65.1491 112.614 65.2441 112.403 65.4211C112.192 65.5913 112.051 65.8336 111.981 66.1481L111.074 66.1087C111.158 65.5971 111.387 65.1787 111.763 64.8536C112.144 64.5214 112.64 64.3446 113.25 64.3231C113.94 64.2988 114.476 64.4767 114.855 64.8567C115.235 65.2299 115.436 65.7586 115.46 66.4427L115.539 68.6679C115.543 68.7898 115.566 68.8772 115.609 68.9299C115.658 68.9757 115.733 68.9968 115.835 68.9932L116.048 68.9857L116.075 69.7376C116.048 69.7453 116.004 69.7502 115.943 69.7524C115.882 69.7613 115.818 69.767 115.75 69.7693C115.507 69.7779 115.305 69.7477 115.147 69.6787C114.995 69.6026 114.882 69.4845 114.809 69.3243C114.735 69.1574 114.694 68.9384 114.684 68.6675L114.786 68.6842C114.747 68.9162 114.639 69.1302 114.463 69.3263C114.287 69.5156 114.065 69.6693 113.798 69.7872C113.53 69.8983 113.244 69.9592 112.94 69.97ZM112.994 69.2152C113.353 69.2026 113.656 69.1241 113.902 68.9798C114.154 68.8285 114.344 68.632 114.471 68.3901C114.598 68.1415 114.656 67.8682 114.646 67.5701L114.632 67.184L112.896 67.5706C112.532 67.6512 112.282 67.7652 112.145 67.9124C112.014 68.0527 111.953 68.2346 111.961 68.4581C111.969 68.7087 112.064 68.9021 112.245 69.0381C112.433 69.1671 112.683 69.2262 112.994 69.2152ZM118.036 69.6686C117.724 69.6795 117.468 69.6072 117.265 69.4515C117.063 69.2959 116.956 69.0419 116.944 68.6897L116.725 62.4917L117.579 62.4617L117.795 68.5885C117.798 68.6969 117.828 68.7806 117.885 68.8397C117.948 68.8917 118.033 68.9159 118.142 68.912L118.609 68.8956L118.635 69.6475L118.036 69.6686ZM124.143 69.5758C123.675 69.5922 123.265 69.4914 122.911 69.2732C122.565 69.0548 122.292 68.7389 122.095 68.3253C121.897 67.9118 121.788 67.4172 121.768 66.8414C121.748 66.2656 121.821 65.7645 121.99 65.3381C122.158 64.9117 122.407 64.5774 122.738 64.3352C123.075 64.0927 123.477 63.9633 123.945 63.9468C124.304 63.9342 124.635 64.0005 124.939 64.1458C125.242 64.2844 125.473 64.4899 125.632 64.7624L125.541 62.1816L126.394 62.1515L126.648 69.3656L125.876 69.3927L125.817 68.581C125.678 68.8775 125.459 69.1158 125.16 69.2958C124.861 69.4691 124.522 69.5625 124.143 69.5758ZM124.287 68.7569C124.605 68.7457 124.87 68.655 125.081 68.4848C125.299 68.3143 125.46 68.0781 125.565 67.776C125.669 67.4671 125.714 67.1095 125.7 66.703C125.685 66.2831 125.615 65.9261 125.489 65.6321C125.364 65.3381 125.186 65.1171 124.957 64.9692C124.735 64.8143 124.464 64.7424 124.146 64.7536C123.672 64.7703 123.299 64.9631 123.027 65.3321C122.762 65.6941 122.64 66.1867 122.662 66.8099C122.684 67.4263 122.84 67.9092 123.13 68.2584C123.427 68.6074 123.813 68.7736 124.287 68.7569ZM128.073 69.3155L127.883 63.9303L128.737 63.9003L128.926 69.2854L128.073 69.3155ZM127.833 63.0877L127.798 62.092L128.692 62.0605L128.727 63.0563L127.833 63.0877ZM132.419 69.2846C131.938 69.3015 131.526 69.238 131.182 69.0942C130.844 68.95 130.576 68.7458 130.377 68.4816C130.184 68.2103 130.068 67.899 130.029 67.5477L130.921 67.4553C130.986 67.7785 131.134 68.0344 131.365 68.223C131.595 68.4048 131.937 68.4877 132.391 68.4718C132.756 68.4589 133.046 68.3911 133.258 68.2683C133.478 68.1385 133.583 67.9415 133.573 67.6773C133.568 67.5351 133.53 67.4177 133.459 67.3253C133.388 67.2328 133.253 67.1562 133.054 67.0954C132.855 67.0278 132.562 66.9669 132.173 66.9127C131.655 66.836 131.244 66.7352 130.942 66.6102C130.645 66.4782 130.429 66.3128 130.293 66.1141C130.164 65.9085 130.094 65.6634 130.084 65.3789C130.068 64.8979 130.23 64.4988 130.571 64.1816C130.913 63.8577 131.408 63.6842 132.059 63.6613C132.499 63.6459 132.871 63.7141 133.175 63.8662C133.485 64.0113 133.73 64.2129 133.908 64.4712C134.093 64.7224 134.219 65.0028 134.284 65.3125L133.392 65.4049C133.344 65.2167 133.264 65.0534 133.151 64.9149C133.037 64.7697 132.891 64.6596 132.712 64.5845C132.533 64.5026 132.321 64.466 132.077 64.4745C131.691 64.4881 131.409 64.5727 131.232 64.7281C131.054 64.8836 130.969 65.0765 130.977 65.3068C130.983 65.4829 131.029 65.6271 131.114 65.7394C131.206 65.8447 131.348 65.9312 131.541 65.9991C131.733 66.0601 131.989 66.1121 132.309 66.1551C132.861 66.2307 133.292 66.3308 133.602 66.4556C133.911 66.5803 134.13 66.7388 134.259 66.9309C134.388 67.123 134.457 67.3614 134.468 67.6459C134.479 67.9778 134.394 68.2656 134.213 68.5094C134.038 68.7461 133.794 68.931 133.48 69.0642C133.172 69.1971 132.819 69.2705 132.419 69.2846ZM137.791 69.0956C137.289 69.1133 136.848 69.0135 136.468 68.7963C136.094 68.5788 135.798 68.2637 135.58 67.8509C135.362 67.4313 135.243 66.937 135.223 66.368C135.203 65.799 135.287 65.3009 135.475 64.8738C135.664 64.4467 135.937 64.1116 136.294 63.8684C136.659 63.6182 137.091 63.4843 137.593 63.4666C138.006 63.4521 138.374 63.5137 138.698 63.6516C139.028 63.7824 139.3 63.9831 139.513 64.2536C139.726 64.5242 139.87 64.8583 139.945 65.2558L139.053 65.3482C138.979 64.9913 138.814 64.7225 138.556 64.5416C138.299 64.354 137.987 64.2666 137.621 64.2795C137.127 64.2969 136.747 64.49 136.482 64.8588C136.217 65.2208 136.095 65.7134 136.117 66.3365C136.139 66.9597 136.295 67.4459 136.585 67.7952C136.875 68.1376 137.268 68.3002 137.762 68.2828C138.128 68.2699 138.433 68.1574 138.676 67.9454C138.919 67.7334 139.065 67.4231 139.111 67.0145L140.007 67.044C139.961 67.4458 139.841 67.7993 139.648 68.1045C139.455 68.4029 139.199 68.6391 138.879 68.8132C138.567 68.9869 138.204 69.0811 137.791 69.0956ZM143.238 68.904C142.744 68.9214 142.306 68.8215 141.925 68.6043C141.545 68.3871 141.245 68.072 141.027 67.6592C140.809 67.2396 140.69 66.7453 140.67 66.1763C140.65 65.6006 140.734 65.0991 140.922 64.672C141.111 64.2449 141.387 63.9096 141.752 63.6662C142.116 63.4228 142.546 63.2924 143.04 63.275C143.535 63.2576 143.969 63.3576 144.343 63.575C144.723 63.7922 145.023 64.1073 145.241 64.5201C145.459 64.9329 145.578 65.4272 145.598 66.003C145.618 66.572 145.534 67.0734 145.346 67.5073C145.157 67.9344 144.881 68.2697 144.516 68.5131C144.159 68.7563 143.733 68.8866 143.238 68.904ZM143.21 68.0911C143.704 68.0737 144.081 67.8841 144.339 67.5224C144.604 67.1536 144.726 66.6576 144.704 66.0344C144.682 65.4112 144.526 64.9284 144.236 64.5859C143.952 64.2365 143.563 64.0704 143.069 64.0878C142.574 64.1052 142.194 64.2983 141.929 64.6671C141.664 65.0291 141.542 65.5217 141.564 66.1449C141.586 66.7681 141.742 67.2543 142.033 67.6035C142.323 67.946 142.715 68.1085 143.21 68.0911ZM148.628 68.7143C148.093 68.7331 147.657 68.5688 147.319 68.2212C146.988 67.8666 146.811 67.371 146.788 66.7342L146.666 63.2695L147.52 63.2394L147.634 66.4705C147.652 66.9921 147.757 67.375 147.949 67.6192C148.147 67.8564 148.439 67.9682 148.825 67.9546C149.252 67.9396 149.582 67.7923 149.817 67.5128C150.051 67.2265 150.159 66.8428 150.143 66.3619L150.03 63.1511L150.883 63.1211L151.073 68.5062L150.26 68.5348L150.213 67.2038L150.347 67.2703C150.255 67.7144 150.06 68.0637 149.764 68.3183C149.467 68.5661 149.089 68.6981 148.628 68.7143ZM152.7 68.449L152.511 63.0638L153.293 63.0363L153.372 64.4069L153.267 64.3191C153.324 63.9983 153.433 63.7334 153.595 63.5242C153.757 63.3082 153.955 63.1453 154.188 63.0353C154.429 62.9252 154.688 62.8652 154.965 62.8554C155.379 62.8409 155.72 62.9204 155.991 63.094C156.268 63.2674 156.477 63.5076 156.617 63.8146C156.763 64.1147 156.843 64.4544 156.856 64.8337L156.978 68.2985L156.124 68.3285L156.011 65.1076C155.999 64.7757 155.949 64.4994 155.86 64.2787C155.777 64.051 155.649 63.8826 155.476 63.7734C155.302 63.6574 155.08 63.6042 154.809 63.6137C154.396 63.6283 154.058 63.7724 153.797 64.0461C153.541 64.3128 153.423 64.6968 153.44 65.198L153.554 68.4189L152.7 68.449ZM160.168 68.1862C159.681 68.2034 159.314 68.1044 159.069 67.8892C158.831 67.6737 158.704 67.3289 158.687 66.8548L158.502 61.5916L159.355 61.5616L159.54 66.8044C159.548 67.0483 159.609 67.2157 159.72 67.3067C159.832 67.3978 160 67.4393 160.223 67.4315L160.995 67.4043L161.022 68.1562L160.168 68.1862ZM157.78 63.6313L157.754 62.8794L160.832 62.7711L160.859 63.5229L157.78 63.6313ZM165.245 68.0076L165.038 62.1348C165.024 61.7351 165.128 61.4093 165.35 61.1574C165.571 60.8986 165.926 60.7607 166.413 60.7435L167.267 60.7135L167.293 61.4654L166.501 61.4933C166.291 61.5007 166.134 61.5638 166.029 61.6828C165.932 61.8015 165.887 61.9625 165.894 62.1657L166.098 67.9776L165.245 68.0076ZM164.35 63.4001L164.324 62.6482L167.26 62.5449L167.287 63.2968L164.35 63.4001ZM170.386 67.9488C169.892 67.9662 169.454 67.8663 169.073 67.6491C168.693 67.4319 168.393 67.1169 168.175 66.7041C167.957 66.2845 167.838 65.7902 167.818 65.2212C167.798 64.6454 167.882 64.144 168.07 63.7168C168.259 63.2897 168.535 62.9545 168.9 62.711C169.264 62.4676 169.693 62.3372 170.188 62.3198C170.682 62.3024 171.117 62.4024 171.491 62.6199C171.871 62.8371 172.171 63.1521 172.388 63.5649C172.606 63.9777 172.726 64.472 172.746 65.0478C172.766 65.6168 172.682 66.1182 172.494 66.5521C172.305 66.9793 172.029 67.3145 171.664 67.5579C171.307 67.8011 170.88 67.9314 170.386 67.9488ZM170.357 67.136C170.852 67.1186 171.228 66.929 171.487 66.5672C171.752 66.1984 171.874 65.7024 171.852 65.0793C171.83 64.4561 171.674 63.9733 171.384 63.6308C171.1 63.2813 170.711 63.1153 170.217 63.1327C169.722 63.1501 169.342 63.3432 169.077 63.7119C168.812 64.0739 168.69 64.5665 168.712 65.1897C168.734 65.8129 168.89 66.2991 169.181 66.6484C169.471 66.9908 169.863 67.1534 170.357 67.136ZM174.004 67.6994L173.814 62.3143L174.566 62.2879L174.655 63.648L174.572 63.6203C174.624 63.1573 174.758 62.8169 174.974 62.5991C175.197 62.3742 175.498 62.2551 175.877 62.2417L176.405 62.2232L176.434 63.036L175.916 63.0542C175.645 63.0638 175.42 63.1226 175.24 63.2306C175.067 63.3316 174.937 63.482 174.849 63.6818C174.768 63.8746 174.732 64.12 174.743 64.418L174.857 67.6694L174.004 67.6994ZM180.394 67.4746L180.204 62.0895L180.987 62.062L181.065 63.4326L180.961 63.3447C181.017 63.024 181.127 62.759 181.289 62.5498C181.451 62.3339 181.648 62.1709 181.882 62.061C182.122 61.9508 182.381 61.8908 182.659 61.8811C183.072 61.8665 183.414 61.946 183.685 62.1196C183.962 62.293 184.171 62.5332 184.31 62.8403C184.456 63.1403 184.536 63.48 184.55 63.8593L184.671 67.3241L183.818 67.3541L183.705 64.1332C183.693 63.8013 183.643 63.525 183.553 63.3044C183.471 63.0767 183.343 62.9082 183.169 62.799C182.996 62.6831 182.773 62.6298 182.502 62.6394C182.089 62.6539 181.752 62.798 181.49 63.0717C181.235 63.3384 181.116 63.7224 181.134 64.2237L181.247 67.4446L180.394 67.4746ZM188.286 67.319C187.778 67.3369 187.334 67.2372 186.953 67.02C186.579 66.8026 186.283 66.4875 186.065 66.0746C185.854 65.6548 185.738 65.1604 185.718 64.5914C185.698 64.0224 185.779 63.5245 185.961 63.0976C186.149 62.6705 186.419 62.3354 186.77 62.0925C187.127 61.8425 187.553 61.7089 188.047 61.6915C188.515 61.675 188.932 61.7723 189.299 61.9832C189.665 62.1873 189.954 62.4959 190.166 62.9089C190.384 63.3218 190.503 63.8296 190.524 64.4325L190.533 64.6865L186.622 64.8241C186.676 65.3987 186.843 65.8268 187.125 66.1086C187.412 66.3901 187.79 66.5226 188.258 66.5062C188.61 66.4938 188.895 66.4024 189.113 66.2319C189.337 66.0545 189.488 65.8287 189.567 65.5547L190.484 65.5936C190.359 66.0796 190.102 66.4854 189.713 66.811C189.331 67.1297 188.855 67.299 188.286 67.319ZM186.595 64.0722L189.572 63.9675C189.513 63.4473 189.347 63.07 189.075 62.8354C188.809 62.6006 188.476 62.4903 188.076 62.5043C187.663 62.5189 187.325 62.6596 187.063 62.9265C186.808 63.1864 186.652 63.5683 186.595 64.0722ZM192.693 67.0419L190.837 61.7154L191.772 61.6825L193.19 66.1292L194.312 61.5931L195.227 61.561L196.665 66.0069L197.777 61.4712L198.712 61.4383L197.235 66.8821L196.158 66.92L194.815 62.8674L193.76 67.0043L192.693 67.0419ZM204.253 66.7572C203.718 66.7761 203.282 66.6117 202.944 66.2641C202.613 65.9095 202.436 65.4139 202.414 64.7772L202.292 61.3124L203.145 61.2824L203.259 64.5134C203.277 65.035 203.382 65.4179 203.574 65.6621C203.772 65.8993 204.064 66.0111 204.451 65.9975C204.877 65.9825 205.208 65.8352 205.442 65.5557C205.676 65.2694 205.785 64.8857 205.768 64.4048L205.655 61.1941L206.508 61.164L206.698 66.5492L205.885 66.5777L205.838 65.2467L205.973 65.3132C205.88 65.7573 205.685 66.1066 205.389 66.3612C205.093 66.609 204.714 66.741 204.253 66.7572ZM210.192 66.5483C209.711 66.5652 209.298 66.5017 208.954 66.3579C208.617 66.2138 208.348 66.0096 208.149 65.7453C207.956 65.474 207.84 65.1627 207.801 64.8114L208.693 64.719C208.758 65.0422 208.907 65.2981 209.137 65.4867C209.367 65.6685 209.709 65.7514 210.163 65.7355C210.529 65.7226 210.818 65.6548 211.031 65.532C211.25 65.4022 211.355 65.2052 211.346 64.941C211.341 64.7988 211.303 64.6814 211.232 64.589C211.16 64.4965 211.026 64.4199 210.827 64.3591C210.628 64.2915 210.334 64.2306 209.945 64.1764C209.427 64.0997 209.017 63.9989 208.714 63.8739C208.418 63.7419 208.202 63.5765 208.066 63.3779C207.936 63.1722 207.867 62.9271 207.857 62.6426C207.84 62.1616 208.002 61.7626 208.344 61.4453C208.685 61.1214 209.181 60.9479 209.831 60.925C210.271 60.9096 210.643 60.9779 210.947 61.1299C211.257 61.275 211.502 61.4767 211.68 61.7349C211.866 61.9861 211.991 62.2665 212.056 62.5762L211.164 62.6686C211.117 62.4804 211.036 62.3171 210.923 62.1786C210.809 62.0334 210.663 61.9233 210.484 61.8482C210.305 61.7663 210.093 61.7297 209.849 61.7383C209.463 61.7518 209.181 61.8364 209.004 61.9918C208.826 62.1473 208.741 62.3402 208.75 62.5705C208.756 62.7466 208.801 62.8908 208.887 63.0031C208.979 63.1084 209.121 63.1949 209.313 63.2628C209.505 63.3238 209.761 63.3759 210.082 63.4188C210.634 63.4944 211.064 63.5945 211.374 63.7193C211.683 63.844 211.903 64.0025 212.032 64.1946C212.16 64.3868 212.23 64.6251 212.24 64.9096C212.251 65.2415 212.167 65.5293 211.985 65.7731C211.811 66.0098 211.566 66.1948 211.252 66.3279C210.945 66.4608 210.591 66.5342 210.192 66.5483ZM215.563 66.3593C215.055 66.3772 214.611 66.2775 214.23 66.0603C213.856 65.8429 213.56 65.5278 213.342 65.1149C213.131 64.6951 213.015 64.2007 212.995 63.6317C212.975 63.0627 213.056 62.5648 213.237 62.1379C213.426 61.7108 213.696 61.3757 214.046 61.1328C214.404 60.8828 214.83 60.7492 215.324 60.7318C215.792 60.7153 216.209 60.8126 216.576 61.0235C216.942 61.2276 217.231 61.5362 217.443 61.9492C217.66 62.3621 217.78 62.8699 217.801 63.4728L217.81 63.7268L213.898 63.8644C213.953 64.439 214.12 64.8672 214.401 65.1489C214.689 65.4304 215.067 65.5629 215.534 65.5465C215.887 65.5341 216.172 65.4427 216.389 65.2722C216.614 65.0948 216.765 64.869 216.844 64.595L217.761 64.6339C217.635 65.1199 217.378 65.5257 216.99 65.8513C216.608 66.17 216.132 66.3393 215.563 66.3593ZM213.872 63.1125L216.849 63.0078C216.79 62.4876 216.624 62.1103 216.351 61.8757C216.085 61.6409 215.753 61.5306 215.353 61.5446C214.94 61.5592 214.602 61.6999 214.34 61.9668C214.085 62.2268 213.929 62.6087 213.872 63.1125ZM219.052 66.1145L218.862 60.7294L219.614 60.7029L219.703 62.063L219.62 62.0354C219.672 61.5724 219.806 61.232 220.022 61.0141C220.245 60.7893 220.546 60.6702 220.925 60.6568L221.453 60.6382L221.482 61.4511L220.964 61.4693C220.693 61.4788 220.468 61.5376 220.288 61.6457C220.115 61.7467 219.985 61.8971 219.897 62.0969C219.816 62.2896 219.78 62.535 219.791 62.8331L219.905 66.0845L219.052 66.1145ZM224.46 66.0463C223.979 66.0632 223.567 65.9997 223.222 65.8559C222.885 65.7117 222.617 65.5075 222.418 65.2433C222.225 64.972 222.109 64.6607 222.069 64.3094L222.961 64.217C223.027 64.5402 223.175 64.7961 223.405 64.9847C223.636 65.1665 223.978 65.2494 224.432 65.2334C224.797 65.2206 225.087 65.1527 225.299 65.03C225.519 64.9002 225.623 64.7032 225.614 64.439C225.609 64.2968 225.571 64.1794 225.5 64.087C225.429 63.9945 225.294 63.9179 225.095 63.8571C224.896 63.7895 224.602 63.7286 224.214 63.6744C223.696 63.5977 223.285 63.4969 222.982 63.3719C222.686 63.2399 222.47 63.0745 222.334 62.8758C222.205 62.6701 222.135 62.425 222.125 62.1406C222.108 61.6596 222.271 61.2605 222.612 60.9433C222.953 60.6193 223.449 60.4459 224.1 60.423C224.54 60.4075 224.912 60.4758 225.216 60.6279C225.526 60.773 225.77 60.9746 225.949 61.2329C226.134 61.4841 226.259 61.7645 226.325 62.0742L225.433 62.1666C225.385 61.9784 225.305 61.815 225.191 61.6766C225.078 61.5314 224.932 61.4213 224.753 61.3462C224.573 61.2643 224.362 61.2277 224.118 61.2362C223.732 61.2498 223.45 61.3343 223.272 61.4898C223.095 61.6453 223.01 61.8381 223.018 62.0684C223.024 62.2446 223.07 62.3888 223.155 62.5011C223.247 62.6063 223.389 62.6929 223.582 62.7607C223.774 62.8218 224.03 62.8738 224.35 62.9168C224.902 62.9924 225.333 63.0925 225.642 63.2172C225.952 63.342 226.171 63.5004 226.3 63.6926C226.429 63.8847 226.498 64.1231 226.508 64.4076C226.52 64.7395 226.435 65.0273 226.254 65.2711C226.079 65.5078 225.835 65.6927 225.521 65.8259C225.213 65.9588 224.86 66.0322 224.46 66.0463Z" fill="#8E8E93"/>
<rect x="200.478" y="24.7422" width="35.9289" height="14.0211" rx="7.01053" transform="rotate(-2.01503 200.478 24.7422)" fill="#21C25B"/>
<path d="M210.14 33.9196L209.943 28.3234L211.141 28.2812L213.701 32.4053L213.553 28.1964L214.578 28.1603L214.775 33.7565L213.545 33.7998L211.021 29.7928L211.165 33.8835L210.14 33.9196ZM215.913 33.7165L215.716 28.1203L219.484 27.9877L219.515 28.8784L216.772 28.9749L216.823 30.433L219.472 30.3399L219.503 31.2226L216.854 31.3158L216.906 32.7897L219.712 32.691L219.743 33.5817L215.913 33.7165ZM221.998 33.5024L220.303 27.9589L221.383 27.9209L222.555 32.0623L223.44 27.8485L224.394 27.8149L225.574 31.956L226.443 27.7428L227.531 27.7046L226.23 33.3535L225.095 33.3934L223.983 29.5971L223.141 33.4622L221.998 33.5024Z" fill="white"/>
<rect x="191.58" y="170.613" width="56.0842" height="14.0211" rx="7.01053" transform="rotate(-2.01503 191.58 170.613)" fill="#D9D9D9"/>
<path d="M201.541 179.28L201.387 174.927L202.123 174.901L203.648 178.629L204.9 174.803L205.636 174.778L205.789 179.13L205.262 179.149L205.143 175.777L204.017 179.192L203.312 179.217L201.949 175.889L202.068 179.261L201.541 179.28ZM206.723 179.097L206.609 175.848L207.124 175.83L207.238 179.079L206.723 179.097ZM206.579 175.34L206.558 174.739L207.097 174.72L207.118 175.321L206.579 175.34ZM208.28 179.043L208.166 175.793L208.638 175.777L208.685 176.604L208.622 176.551C208.656 176.357 208.722 176.197 208.82 176.071C208.918 175.941 209.037 175.843 209.178 175.776C209.323 175.71 209.479 175.674 209.647 175.668C209.896 175.659 210.102 175.707 210.265 175.812C210.433 175.916 210.559 176.061 210.643 176.246C210.731 176.427 210.779 176.632 210.787 176.861L210.861 178.952L210.346 178.97L210.278 177.026C210.27 176.826 210.24 176.66 210.186 176.526C210.136 176.389 210.059 176.287 209.955 176.221C209.85 176.152 209.716 176.119 209.552 176.125C209.303 176.134 209.099 176.221 208.941 176.386C208.788 176.547 208.716 176.779 208.727 177.081L208.795 179.024L208.28 179.043ZM211.916 178.915L211.891 178.222L212.584 178.197L212.608 178.89L211.916 178.915ZM211.831 176.505L211.806 175.813L212.499 175.788L212.524 176.481L211.831 176.505ZM217.095 178.732L215.209 177.105L215.191 176.59L216.38 176.548C216.601 176.54 216.783 176.503 216.928 176.436C217.073 176.37 217.18 176.274 217.25 176.149C217.319 176.02 217.35 175.865 217.344 175.685C217.338 175.505 217.295 175.358 217.218 175.242C217.14 175.126 217.027 175.042 216.877 174.99C216.728 174.934 216.543 174.909 216.322 174.917L215.133 174.959L215.116 174.475L216.305 174.433C216.587 174.423 216.847 174.465 217.083 174.559C217.32 174.649 217.511 174.787 217.656 174.975C217.802 175.158 217.88 175.388 217.889 175.666C217.899 175.944 217.846 176.187 217.731 176.396C217.615 176.601 217.445 176.76 217.22 176.874C216.995 176.989 216.721 177.051 216.398 177.063L215.932 177.079L217.849 178.706L217.095 178.732ZM215.17 176.007L215.154 175.541L218.378 175.428L218.395 175.894L215.17 176.007ZM215.131 174.91L215.115 174.444L218.34 174.331L218.356 174.796L215.131 174.91ZM219.239 178.657C219.228 178.35 219.265 178.073 219.351 177.824C219.44 177.572 219.601 177.329 219.834 177.095C220.072 176.862 220.403 176.623 220.828 176.379C221.025 176.266 221.183 176.162 221.302 176.068C221.422 175.974 221.508 175.874 221.562 175.77C221.615 175.666 221.64 175.54 221.634 175.393C221.629 175.242 221.592 175.112 221.523 175.004C221.453 174.892 221.352 174.806 221.219 174.745C221.09 174.684 220.929 174.657 220.737 174.664C220.431 174.674 220.19 174.763 220.016 174.928C219.846 175.094 219.744 175.325 219.709 175.62L219.156 175.603C219.19 175.176 219.342 174.831 219.611 174.568C219.88 174.305 220.249 174.165 220.719 174.149C221.017 174.138 221.275 174.182 221.491 174.281C221.707 174.38 221.874 174.523 221.991 174.712C222.112 174.896 222.177 175.112 222.186 175.361C222.193 175.582 222.163 175.776 222.096 175.942C222.028 176.104 221.908 176.257 221.737 176.402C221.571 176.547 221.339 176.705 221.042 176.875C220.657 177.097 220.366 177.318 220.169 177.538C219.976 177.757 219.877 177.951 219.87 178.119L222.28 178.034L222.298 178.549L219.239 178.657ZM224.639 178.565C224.288 178.577 223.98 178.496 223.716 178.321C223.452 178.147 223.243 177.892 223.088 177.558C222.937 177.224 222.853 176.823 222.837 176.357C222.82 175.892 222.876 175.487 223.003 175.142C223.134 174.794 223.325 174.523 223.576 174.33C223.827 174.133 224.128 174.029 224.479 174.016C224.835 174.004 225.145 174.087 225.409 174.266C225.673 174.441 225.88 174.695 226.031 175.03C226.186 175.364 226.272 175.766 226.288 176.236C226.305 176.702 226.247 177.107 226.116 177.451C225.989 177.795 225.8 178.064 225.549 178.257C225.298 178.45 224.995 178.553 224.639 178.565ZM224.621 178.05C224.997 178.037 225.282 177.876 225.476 177.566C225.669 177.252 225.756 176.815 225.737 176.255C225.723 175.879 225.665 175.562 225.562 175.304C225.463 175.042 225.323 174.846 225.142 174.717C224.966 174.584 224.751 174.522 224.497 174.531C224.248 174.54 224.038 174.617 223.867 174.762C223.7 174.903 223.574 175.108 223.49 175.377C223.409 175.642 223.375 175.962 223.389 176.338C223.408 176.898 223.526 177.328 223.741 177.627C223.956 177.922 224.249 178.063 224.621 178.05ZM228.704 178.422C228.353 178.434 228.045 178.353 227.781 178.178C227.517 178.004 227.308 177.749 227.153 177.415C227.002 177.08 226.918 176.68 226.902 176.214C226.885 175.749 226.941 175.344 227.068 174.999C227.199 174.651 227.39 174.38 227.641 174.187C227.892 173.99 228.193 173.886 228.544 173.873C228.9 173.861 229.21 173.944 229.474 174.123C229.738 174.298 229.945 174.552 230.096 174.887C230.251 175.221 230.337 175.623 230.353 176.093C230.37 176.559 230.312 176.964 230.181 177.308C230.054 177.652 229.865 177.921 229.614 178.114C229.363 178.307 229.06 178.41 228.704 178.422ZM228.686 177.907C229.062 177.894 229.347 177.733 229.541 177.423C229.734 177.109 229.821 176.672 229.802 176.112C229.788 175.736 229.73 175.419 229.627 175.161C229.528 174.899 229.388 174.703 229.207 174.574C229.031 174.441 228.816 174.379 228.562 174.388C228.313 174.397 228.103 174.474 227.932 174.619C227.765 174.76 227.639 174.965 227.555 175.234C227.474 175.499 227.44 175.819 227.454 176.195C227.473 176.755 227.591 177.185 227.806 177.484C228.021 177.779 228.314 177.92 228.686 177.907ZM232.769 178.279C232.418 178.291 232.11 178.21 231.846 178.035C231.582 177.861 231.373 177.606 231.218 177.272C231.067 176.937 230.983 176.537 230.967 176.071C230.95 175.606 231.006 175.201 231.133 174.856C231.264 174.508 231.455 174.237 231.706 174.044C231.957 173.847 232.258 173.743 232.609 173.73C232.965 173.718 233.275 173.801 233.539 173.98C233.803 174.155 234.01 174.409 234.161 174.744C234.316 175.078 234.402 175.48 234.418 175.95C234.435 176.416 234.377 176.821 234.246 177.165C234.119 177.509 233.93 177.778 233.679 177.971C233.428 178.164 233.125 178.267 232.769 178.279ZM232.751 177.764C233.127 177.751 233.412 177.589 233.606 177.28C233.799 176.966 233.886 176.529 233.867 175.969C233.853 175.593 233.795 175.276 233.692 175.018C233.593 174.756 233.453 174.56 233.272 174.431C233.096 174.298 232.881 174.236 232.627 174.245C232.378 174.254 232.168 174.331 231.997 174.476C231.83 174.617 231.704 174.822 231.62 175.091C231.539 175.356 231.505 175.676 231.519 176.052C231.538 176.612 231.656 177.042 231.871 177.341C232.086 177.636 232.379 177.777 232.751 177.764ZM236.834 178.136C236.483 178.148 236.175 178.067 235.911 177.892C235.647 177.717 235.438 177.463 235.283 177.129C235.132 176.794 235.048 176.394 235.032 175.928C235.015 175.463 235.071 175.058 235.198 174.713C235.329 174.365 235.52 174.094 235.771 173.901C236.022 173.704 236.323 173.6 236.674 173.587C237.03 173.575 237.34 173.658 237.604 173.837C237.868 174.012 238.075 174.266 238.226 174.601C238.381 174.935 238.467 175.337 238.483 175.807C238.5 176.273 238.442 176.678 238.311 177.022C238.184 177.366 237.995 177.635 237.744 177.828C237.493 178.021 237.19 178.124 236.834 178.136ZM236.816 177.621C237.192 177.608 237.477 177.446 237.671 177.137C237.864 176.823 237.951 176.386 237.932 175.826C237.918 175.45 237.86 175.133 237.757 174.875C237.658 174.613 237.518 174.417 237.337 174.288C237.161 174.155 236.946 174.093 236.692 174.102C236.443 174.111 236.233 174.188 236.062 174.333C235.895 174.474 235.769 174.679 235.685 174.948C235.604 175.213 235.57 175.533 235.584 175.909C235.603 176.469 235.721 176.899 235.936 177.198C236.151 177.493 236.444 177.634 236.816 177.621Z" fill="#121217"/>
<g clip-path="url(#clip2_2546_24063)">
<path d="M30.4371 188.722C29.4519 188.757 28.4786 188.499 27.6402 187.98C26.8019 187.462 26.1361 186.706 25.7271 185.809C25.318 184.912 25.1842 183.914 25.3424 182.941C25.5006 181.968 25.9437 181.064 26.6158 180.343C27.2879 179.622 28.1587 179.116 29.1182 178.89C30.0776 178.664 31.0826 178.727 32.006 179.072C32.9294 179.417 33.7298 180.028 34.306 180.828C34.8821 181.628 35.2081 182.581 35.2428 183.566C35.2892 184.887 34.809 186.172 33.9078 187.139C33.0065 188.106 31.7581 188.676 30.4371 188.722ZM30.1116 179.472C29.2672 179.502 28.4506 179.781 27.765 180.275C27.0794 180.769 26.5556 181.455 26.2599 182.246C25.9642 183.038 25.9099 183.899 26.1037 184.722C26.2976 185.544 26.731 186.29 27.3491 186.866C27.9672 187.442 28.7422 187.822 29.5762 187.958C30.4102 188.094 31.2656 187.979 32.0344 187.628C32.8032 187.278 33.4507 186.707 33.8951 185.988C34.3396 185.27 34.5609 184.435 34.5312 183.591C34.4914 182.459 34.0033 181.389 33.1745 180.616C32.3457 179.844 31.2439 179.432 30.1116 179.472Z" fill="#8E8E93"/>
<path d="M31.9699 185.82L29.9111 183.901L29.7933 180.553L30.5049 180.528L30.6123 183.58L32.4539 185.3L31.9699 185.82Z" fill="#8E8E93"/>
</g>
<defs>
<linearGradient id="paint0_linear_2546_24063" x1="-9.00663" y1="-22.6905" x2="239.537" y2="212.77" gradientUnits="userSpaceOnUse">
<stop stop-color="#FAF4FE"/>
<stop offset="1" stop-color="#F9F3FF"/>
</linearGradient>
<linearGradient id="paint1_linear_2546_24063" x1="10.9333" y1="26.9629" x2="42.6208" y2="64.9879" gradientUnits="userSpaceOnUse">
<stop stop-color="#8437EE"/>
<stop offset="1" stop-color="#B22AD8"/>
</linearGradient>
<clipPath id="clip0_2546_24063">
<rect width="10.5158" height="10.5158" fill="white" transform="translate(182.456 135.592) rotate(-2.01503)"/>
</clipPath>
<clipPath id="clip1_2546_24063">
<rect width="24.375" height="24.375" fill="white" transform="translate(24.92 41.2383) rotate(-2.01503)"/>
</clipPath>
<clipPath id="clip2_2546_24063">
<rect width="11.3921" height="11.3921" fill="white" transform="translate(24.3689 178.25) rotate(-2.01503)"/>
</clipPath>
</defs>
</svg>
